<svg width="102" height="59" viewBox="0 0 102 59" fill="none" xmlns="http://www.w3.org/2000/svg">
<path opacity="0.12" d="M50.24 29.5346C50.24 35.1666 49.152 40.1906 46.976 44.6066C44.864 48.9586 41.92 52.3826 38.144 54.8786C34.432 57.3746 30.208 58.6226 25.472 58.6226C20.736 58.6226 16.48 57.3746 12.704 54.8786C8.992 52.3826 6.048 48.9586 3.872 44.6066C1.76 40.1906 0.704 35.1666 0.704 29.5346C0.704 23.9026 1.76 18.9106 3.872 14.5586C6.048 10.1426 8.992 6.6866 12.704 4.19059C16.48 1.6306 20.736 0.350597 25.472 0.350597C30.208 0.350597 34.432 1.6306 38.144 4.19059C41.92 6.6866 44.864 10.1426 46.976 14.5586C49.152 18.9106 50.24 23.9026 50.24 29.5346ZM37.28 29.5346C37.28 26.0786 36.768 23.0706 35.744 20.5106C34.784 17.8866 33.408 15.8386 31.616 14.3666C29.824 12.8946 27.776 12.1586 25.472 12.1586C23.104 12.1586 21.024 12.8946 19.232 14.3666C17.44 15.8386 16.032 17.8866 15.008 20.5106C14.048 23.0706 13.568 26.0786 13.568 29.5346C13.568 32.9906 14.048 35.9986 15.008 38.5586C16.032 41.1186 17.44 43.1346 19.232 44.6066C21.024 46.0786 23.104 46.8146 25.472 46.8146C27.776 46.8146 29.792 46.0786 31.52 44.6066C33.312 43.1346 34.72 41.1186 35.744 38.5586C36.768 35.9346 37.28 32.9266 37.28 29.5346ZM101.049 46.0466V57.6626H62.0727V46.0466H75.7048V16.9586C75.1288 17.7266 74.2327 18.5266 73.0167 19.3586C71.8007 20.1266 70.4247 20.8626 68.8887 21.5666C67.3527 22.2706 65.8167 22.8466 64.2807 23.2946C62.7447 23.7426 61.3687 23.9666 60.1527 23.9666V11.9666C61.3047 11.9666 62.6807 11.6146 64.2807 10.9106C65.9447 10.1426 67.5767 9.2466 69.1768 8.22259C70.8407 7.1986 72.2487 6.2066 73.4008 5.2466C74.6167 4.2226 75.3847 3.42259 75.7048 2.84659H88.8568V46.0466H101.049Z" fill="#F1EEFF"/>
</svg>
