<svg width="106" height="59" viewBox="0 0 106 59" fill="none" xmlns="http://www.w3.org/2000/svg">
<path opacity="0.12" d="M50.24 29.5346C50.24 35.1666 49.152 40.1906 46.976 44.6066C44.864 48.9586 41.92 52.3826 38.144 54.8786C34.432 57.3746 30.208 58.6226 25.472 58.6226C20.736 58.6226 16.48 57.3746 12.704 54.8786C8.992 52.3826 6.048 48.9586 3.872 44.6066C1.76 40.1906 0.704 35.1666 0.704 29.5346C0.704 23.9026 1.76 18.9106 3.872 14.5586C6.048 10.1426 8.992 6.6866 12.704 4.19059C16.48 1.6306 20.736 0.350597 25.472 0.350597C30.208 0.350597 34.432 1.6306 38.144 4.19059C41.92 6.6866 44.864 10.1426 46.976 14.5586C49.152 18.9106 50.24 23.9026 50.24 29.5346ZM37.28 29.5346C37.28 26.0786 36.768 23.0706 35.744 20.5106C34.784 17.8866 33.408 15.8386 31.616 14.3666C29.824 12.8946 27.776 12.1586 25.472 12.1586C23.104 12.1586 21.024 12.8946 19.232 14.3666C17.44 15.8386 16.032 17.8866 15.008 20.5106C14.048 23.0706 13.568 26.0786 13.568 29.5346C13.568 32.9906 14.048 35.9986 15.008 38.5586C16.032 41.1186 17.44 43.1346 19.232 44.6066C21.024 46.0786 23.104 46.8146 25.472 46.8146C27.776 46.8146 29.792 46.0786 31.52 44.6066C33.312 43.1346 34.72 41.1186 35.744 38.5586C36.768 35.9346 37.28 32.9266 37.28 29.5346ZM59.5767 57.6626C59.5767 54.7826 59.8007 52.1906 60.2487 49.8866C60.6967 47.5826 61.4647 45.4386 62.5527 43.4546C63.7047 41.4706 65.2407 39.6146 67.1607 37.8866C69.1447 36.0946 71.6407 34.3666 74.6487 32.7026C77.2728 31.2946 79.5768 30.0786 81.5608 29.0546C83.5448 27.9666 85.2087 26.9746 86.5527 26.0786C87.9608 25.1826 89.0168 24.2866 89.7208 23.3906C90.4248 22.4306 90.7767 21.3426 90.7767 20.1266C90.7767 18.8466 90.4248 17.6946 89.7208 16.6706C89.0168 15.5826 88.0248 14.7186 86.7448 14.0786C85.4648 13.4386 83.8648 13.1186 81.9448 13.1186C80.4088 13.1186 78.9688 13.3106 77.6248 13.6946C76.3448 14.0786 75.1288 14.6226 73.9767 15.3266C72.8887 16.0306 71.8647 16.8306 70.9047 17.7266C69.9447 18.5586 69.0807 19.4546 68.3127 20.4146L60.1527 11.0066C61.0487 10.1106 62.2327 9.1506 63.7047 8.12659C65.2407 7.03859 67.0327 6.04659 69.0807 5.15059C71.1927 4.19059 73.4967 3.42259 75.9927 2.84659C78.5528 2.20659 81.2727 1.88659 84.1527 1.88659C88.5048 1.88659 92.2168 2.5906 95.2888 3.9986C98.3608 5.34259 100.697 7.23059 102.297 9.6626C103.961 12.0946 104.793 14.9426 104.793 18.2066C104.793 20.4466 104.377 22.4306 103.545 24.1586C102.713 25.8866 101.657 27.4226 100.377 28.7666C99.0968 30.0466 97.6888 31.1986 96.1528 32.2226C94.6808 33.2466 93.2408 34.1426 91.8328 34.9106C89.8488 35.9346 88.0568 36.8946 86.4568 37.7906C84.8568 38.6226 83.4488 39.4866 82.2328 40.3826C81.0168 41.2146 79.9288 42.0786 78.9688 42.9746C78.0728 43.8706 77.2727 44.8946 76.5687 46.0466H105.849V57.6626H59.5767Z" fill="#F1EEFF"/>
</svg>
