<svg width="106" height="73" viewBox="0 0 106 73" fill="none" xmlns="http://www.w3.org/2000/svg">
<path opacity="0.12" d="M50.24 29.872C50.24 35.504 49.152 40.528 46.976 44.944C44.864 49.296 41.92 52.72 38.144 55.216C34.432 57.712 30.208 58.96 25.472 58.96C20.736 58.96 16.48 57.712 12.704 55.216C8.992 52.72 6.048 49.296 3.872 44.944C1.76 40.528 0.704 35.504 0.704 29.872C0.704 24.24 1.76 19.248 3.872 14.896C6.048 10.48 8.992 7.024 12.704 4.528C16.48 1.968 20.736 0.688 25.472 0.688C30.208 0.688 34.432 1.968 38.144 4.528C41.92 7.024 44.864 10.48 46.976 14.896C49.152 19.248 50.24 24.24 50.24 29.872ZM37.28 29.872C37.28 26.416 36.768 23.408 35.744 20.848C34.784 18.224 33.408 16.176 31.616 14.704C29.824 13.232 27.776 12.496 25.472 12.496C23.104 12.496 21.024 13.232 19.232 14.704C17.44 16.176 16.032 18.224 15.008 20.848C14.048 23.408 13.568 26.416 13.568 29.872C13.568 33.328 14.048 36.336 15.008 38.896C16.032 41.456 17.44 43.472 19.232 44.944C21.024 46.416 23.104 47.152 25.472 47.152C27.776 47.152 29.792 46.416 31.52 44.944C33.312 43.472 34.72 41.456 35.744 38.896C36.768 36.272 37.28 33.264 37.28 29.872ZM92.5048 35.344C95.1927 35.792 97.5288 36.816 99.5128 38.416C101.497 39.952 103.033 41.936 104.121 44.368C105.273 46.8 105.849 49.488 105.849 52.432C105.849 56.4 104.825 59.856 102.777 62.8C100.729 65.744 97.8168 68.016 94.0408 69.616C90.3288 71.28 85.9448 72.112 80.8888 72.112C76.0248 72.112 71.7048 71.312 67.9287 69.712C64.2167 68.176 61.1127 65.904 58.6167 62.896L65.9127 53.776C67.5767 55.824 69.5608 57.424 71.8647 58.576C74.2327 59.792 77.1128 60.4 80.5048 60.4C84.4087 60.4 87.3847 59.6 89.4327 58C91.4808 56.464 92.5048 54.128 92.5048 50.992C92.5048 47.664 91.3208 45.104 88.9528 43.312C86.5848 41.52 83.0008 40.624 78.2007 40.624H75.5128V31.024H78.4888C82.3927 31.024 85.4327 30.128 87.6088 28.336C89.8488 26.544 90.9688 24.304 90.9688 21.616C90.9688 19.888 90.5528 18.448 89.7208 17.296C88.8888 16.144 87.7368 15.28 86.2648 14.704C84.8567 14.128 83.1927 13.84 81.2727 13.84C78.3927 13.84 75.7688 14.512 73.4008 15.856C71.0328 17.2 69.1128 19.088 67.6407 21.52L59.5767 12.496C60.9207 10.512 62.7447 8.816 65.0487 7.408C67.4167 5.936 70.1047 4.784 73.1127 3.952C76.1848 3.12 79.3848 2.704 82.7128 2.704C87.0647 2.704 90.8728 3.408 94.1368 4.816C97.4648 6.224 100.057 8.208 101.913 10.768C103.769 13.328 104.697 16.304 104.697 19.696C104.697 22.192 104.185 24.56 103.161 26.8C102.137 29.04 100.697 30.928 98.8408 32.464C97.0488 33.936 94.9368 34.896 92.5048 35.344Z" fill="#F1EEFF"/>
</svg>
