<svg width="30" height="30" viewBox="0 0 30 30" fill="none" xmlns="http://www.w3.org/2000/svg">
<path d="M8.75 22.4975C6.03125 22.4825 4.55875 22.3625 3.59875 21.4013C2.5 20.3038 2.5 18.535 2.5 15V10C2.5 6.465 2.5 4.69625 3.59875 3.59875C4.69625 2.5 6.465 2.5 10 2.5H20C23.535 2.5 25.3038 2.5 26.4013 3.59875C27.0138 4.21125 27.285 5.03125 27.405 6.25M20.625 22.4975L21.65 22.495C24.115 22.4688 25.49 22.3138 26.4013 21.4013C27.5 20.3038 27.5 18.535 27.5 15V11.25M11.25 7.5H18.75M8.75 11.875H11.25M21.25 11.875H15.625" stroke="#513EB4" stroke-width="2" stroke-linecap="round"/>
<path d="M13.6125 17.4313C13.9994 17.1011 14.4914 16.9197 15 16.9197C15.5086 16.9197 16.0006 17.1011 16.3875 17.4313C16.7287 17.7238 17.155 17.9 17.6037 17.9363C18.1103 17.9766 18.5859 18.1959 18.9453 18.5551C19.3047 18.9143 19.5244 19.3898 19.565 19.8963C19.6 20.3463 19.7775 20.7713 20.0688 21.1138C20.3983 21.5005 20.5792 21.992 20.5792 22.5C20.5792 23.0081 20.3983 23.4995 20.0688 23.8863C19.7768 24.2289 19.6005 24.655 19.565 25.1038C19.5246 25.6107 19.3049 26.0866 18.9452 26.4461C18.5855 26.8055 18.1094 27.025 17.6025 27.065C17.1542 27.1008 16.7286 27.2771 16.3862 27.5688C15.9995 27.8983 15.5081 28.0793 15 28.0793C14.4919 28.0793 14.0005 27.8983 13.6137 27.5688C13.2712 27.2764 12.8451 27.0997 12.3962 27.0638C11.8899 27.0232 11.4146 26.8037 11.0555 26.4445C10.6963 26.0854 10.4768 25.6101 10.4362 25.1038C10.4004 24.6549 10.2236 24.2288 9.93125 23.8863C9.60175 23.4995 9.42078 23.0081 9.42078 22.5C9.42078 21.992 9.60175 21.5005 9.93125 21.1138C10.2236 20.7713 10.4004 20.3452 10.4362 19.8963C10.4768 19.39 10.6963 18.9147 11.0555 18.5555C11.4146 18.1964 11.8899 17.9768 12.3962 17.9363C12.8462 17.9 13.27 17.7238 13.6125 17.4313Z" stroke="#513EB4" stroke-width="2"/>
<path d="M13.125 22.75L14.1963 23.75L16.875 21.25" stroke="#513EB4" stroke-width="2" stroke-linecap="round" stroke-linejoin="round"/>
</svg>
