<svg width="30" height="30" viewBox="0 0 30 30" fill="none" xmlns="http://www.w3.org/2000/svg">
<g clip-path="url(#clip0_35_106)">
<path d="M13.2325 2.625C13.675 2.18309 14.267 1.92307 14.8918 1.89623C15.5166 1.86938 16.1287 2.07767 16.6075 2.48L16.7675 2.62625L19.1425 5H22.5C23.1305 5.00012 23.7377 5.23847 24.1999 5.6673C24.6621 6.09613 24.9452 6.68377 24.9925 7.3125L25 7.5V10.8575L27.375 13.2325C27.8172 13.6751 28.0775 14.2673 28.1043 14.8924C28.1312 15.5175 27.9227 16.1299 27.52 16.6088L27.3737 16.7675L24.9987 19.1425V22.5C24.9989 23.1307 24.7607 23.7382 24.3319 24.2007C23.903 24.6632 23.3152 24.9464 22.6862 24.9938L22.5 25H19.1437L16.7687 27.375C16.3262 27.8173 15.7339 28.0775 15.1088 28.1044C14.4838 28.1312 13.8713 27.9227 13.3925 27.52L13.2337 27.375L10.8587 25H7.49999C6.86927 25.0002 6.26179 24.762 5.79931 24.3331C5.33683 23.9043 5.05355 23.3164 5.00624 22.6875L4.99999 22.5V19.1425L2.62499 16.7675C2.18274 16.325 1.92249 15.7327 1.89565 15.1076C1.8688 14.4825 2.07731 13.8701 2.47999 13.3913L2.62499 13.2325L4.99999 10.8575V7.5C5.00011 6.8695 5.23846 6.26232 5.66729 5.80011C6.09612 5.3379 6.68376 5.05479 7.31249 5.0075L7.49999 5H10.8575L13.2325 2.625ZM15 4.395L12.625 6.77C12.2098 7.18457 11.662 7.43988 11.0775 7.49125L10.8575 7.5H7.49999V10.8575C7.50014 11.4449 7.29348 12.0135 6.91624 12.4638L6.76749 12.6263L4.39249 15.0013L6.76749 17.375C7.18252 17.79 7.43828 18.3379 7.48999 18.9225L7.49999 19.1425V22.5H10.8575C11.4449 22.4999 12.0135 22.7065 12.4637 23.0838L12.6262 23.2325L15 25.6075L17.375 23.2325C17.79 22.8175 18.3378 22.5617 18.9225 22.51L19.1425 22.5H22.5V19.1425C22.4998 18.5551 22.7065 17.9865 23.0837 17.5363L23.2325 17.3738L25.6075 15L23.2325 12.625C22.8175 12.21 22.5617 11.6622 22.51 11.0775L22.5 10.8575V7.5H19.1425C18.5551 7.50015 17.9865 7.29349 17.5362 6.91625L17.3737 6.7675L14.9987 4.3925L15 4.395ZM18.85 11.23C19.0749 11.0058 19.3768 10.8757 19.6942 10.866C20.0117 10.8563 20.3209 10.9678 20.5591 11.1778C20.7973 11.3879 20.9466 11.6807 20.9767 11.9968C21.0069 12.313 20.9155 12.6288 20.7212 12.88L20.6162 12.9975L14.5162 19.0975C14.2781 19.336 13.9606 19.4787 13.6242 19.4985C13.2878 19.5183 12.9558 19.4139 12.6912 19.205L12.5712 19.0988L9.56624 16.0938C9.33968 15.8693 9.20745 15.5668 9.19664 15.2481C9.18583 14.9293 9.29724 14.6185 9.50808 14.3793C9.71891 14.14 10.0132 13.9904 10.3308 13.961C10.6483 13.9316 10.9651 14.0247 11.2162 14.2213L11.3337 14.325L13.5437 16.535L18.85 11.23Z" fill="#513EB4"/>
</g>
<defs>
<clipPath id="clip0_35_106">
<rect width="30" height="30" fill="white"/>
</clipPath>
</defs>
</svg>
