<svg width="30" height="30" viewBox="0 0 30 30" fill="none" xmlns="http://www.w3.org/2000/svg">
<rect width="30" height="30" fill="#CFCFCF"/>
<g id="1920" clip-path="url(#clip0_0_1)">
<rect width="1920" height="3628" transform="translate(-1403 -682)" fill="white"/>
<g id="&#208;&#164;&#208;&#152;&#208;&#161; &#208;&#164;&#208;&#160;&#208;&#148;&#208;&#158;">
<g id="3">
<path id="Vector" d="M9.65 20.57L11.8512 19.935L25.105 6.52249C25.2095 6.41536 25.2677 6.27141 25.267 6.12172C25.2663 5.97204 25.2068 5.82864 25.1012 5.72249L24.3075 4.91999C24.2562 4.86729 24.1949 4.82533 24.1272 4.79656C24.0596 4.7678 23.9868 4.7528 23.9133 4.75245C23.8397 4.7521 23.7669 4.76641 23.6989 4.79453C23.631 4.82265 23.5693 4.86403 23.5175 4.91624L10.2987 18.2937L9.64875 20.5687L9.65 20.57ZM25.8787 3.32999L26.6725 4.13374C27.7675 5.24249 27.7775 7.03124 26.6925 8.12874L13.035 21.9512L8.33 23.3062C8.04275 23.3866 7.73533 23.3498 7.4752 23.2038C7.21508 23.0578 7.0235 22.8146 6.9425 22.5275C6.88223 22.3211 6.88136 22.1019 6.94 21.895L8.30875 17.095L21.93 3.30874C22.189 3.04794 22.4974 2.84132 22.8371 2.70093C23.1768 2.56054 23.541 2.4892 23.9086 2.49106C24.2761 2.49293 24.6396 2.56795 24.9779 2.71177C25.3162 2.8556 25.6224 3.06658 25.8787 3.32999ZM11.48 4.77124C12.1 4.77124 12.6025 5.27999 12.6025 5.90749C12.6035 6.05583 12.5752 6.2029 12.5193 6.34031C12.4634 6.47771 12.381 6.60275 12.2768 6.70828C12.1725 6.81381 12.0485 6.89775 11.9118 6.95531C11.7751 7.01287 11.6283 7.04292 11.48 7.04374H6.99C5.75 7.04374 4.745 8.06124 4.745 9.31499V22.9475C4.745 24.2025 5.75 25.22 6.99 25.22H20.46C21.7 25.22 22.7063 24.2025 22.7063 22.9475V18.4037C22.7063 17.7762 23.2087 17.2675 23.8287 17.2675C24.4487 17.2675 24.9513 17.7762 24.9513 18.405V22.9475C24.9513 25.4575 22.94 27.4925 20.46 27.4925H6.99C4.51 27.4925 2.5 25.4575 2.5 22.9475V9.31499C2.5 6.80624 4.51 4.77124 6.99 4.77124H11.48Z" fill="#513EB4"/>
</g>
</g>
</g>
<defs>
<clipPath id="clip0_0_1">
<rect width="1920" height="3628" fill="white" transform="translate(-1403 -682)"/>
</clipPath>
</defs>
</svg>
