<svg width="240" height="461" viewBox="0 0 240 461" fill="none" xmlns="http://www.w3.org/2000/svg">
<g opacity="0.7">
<path fill-rule="evenodd" clip-rule="evenodd" d="M230.5 460C357.249 460 460 357.249 460 230.5C460 103.751 357.249 1 230.5 1C103.751 1 1 103.751 1 230.5C1 357.249 103.751 460 230.5 460ZM230.5 461C357.802 461 461 357.802 461 230.5C461 103.198 357.802 0 230.5 0C103.198 0 0 103.198 0 230.5C0 357.802 103.198 461 230.5 461Z" fill="#513EB4"/>
<path fill-rule="evenodd" clip-rule="evenodd" d="M233.212 419.324C337.496 419.324 422.035 334.784 422.035 230.5C422.035 126.216 337.496 41.6765 233.212 41.6765C128.927 41.6765 44.3883 126.216 44.3883 230.5C44.3883 334.784 128.927 419.324 233.212 419.324ZM233.212 420.324C338.048 420.324 423.035 335.337 423.035 230.5C423.035 125.663 338.048 40.6765 233.212 40.6765C128.375 40.6765 43.3883 125.663 43.3883 230.5C43.3883 335.337 128.375 420.324 233.212 420.324Z" fill="#513EB4"/>
<path fill-rule="evenodd" clip-rule="evenodd" d="M233.212 378.647C315.031 378.647 381.359 312.319 381.359 230.5C381.359 148.681 315.031 82.353 233.212 82.353C151.392 82.353 85.0647 148.681 85.0647 230.5C85.0647 312.319 151.392 378.647 233.212 378.647ZM233.212 379.647C315.583 379.647 382.359 312.872 382.359 230.5C382.359 148.128 315.583 81.353 233.212 81.353C150.84 81.353 84.0647 148.128 84.0647 230.5C84.0647 312.872 150.84 379.647 233.212 379.647Z" fill="#513EB4"/>
<path fill-rule="evenodd" clip-rule="evenodd" d="M233.212 337.971C292.566 337.971 340.682 289.854 340.682 230.5C340.682 171.146 292.566 123.029 233.212 123.029C173.857 123.029 125.741 171.146 125.741 230.5C125.741 289.854 173.857 337.971 233.212 337.971ZM233.212 338.971C293.118 338.971 341.682 290.407 341.682 230.5C341.682 170.593 293.118 122.029 233.212 122.029C173.305 122.029 124.741 170.593 124.741 230.5C124.741 290.407 173.305 338.971 233.212 338.971Z" fill="#513EB4"/>
</g>
</svg>
