<svg width="391" height="640" viewBox="0 0 391 640" fill="none" xmlns="http://www.w3.org/2000/svg">
<g opacity="0.7">
<path fill-rule="evenodd" clip-rule="evenodd" d="M71 639C247.179 639 390 496.179 390 320C390 143.821 247.179 1 71 1C-105.179 1 -248 143.821 -248 320C-248 496.179 -105.179 639 71 639ZM71 640C247.731 640 391 496.731 391 320C391 143.269 247.731 0 71 0C-105.731 0 -249 143.269 -249 320C-249 496.731 -105.731 640 71 640Z" fill="#513EB4"/>
<path fill-rule="evenodd" clip-rule="evenodd" d="M74.7647 582.529C219.756 582.529 337.294 464.991 337.294 320C337.294 175.009 219.756 57.4706 74.7647 57.4706C-70.2263 57.4706 -187.765 175.009 -187.765 320C-187.765 464.991 -70.2263 582.529 74.7647 582.529ZM74.7647 583.529C220.308 583.529 338.294 465.543 338.294 320C338.294 174.457 220.308 56.4706 74.7647 56.4706C-70.7786 56.4706 -188.765 174.457 -188.765 320C-188.765 465.543 -70.7786 583.529 74.7647 583.529Z" fill="#513EB4"/>
<path fill-rule="evenodd" clip-rule="evenodd" d="M74.7647 526.059C188.568 526.059 280.824 433.803 280.824 320C280.824 206.197 188.568 113.941 74.7647 113.941C-39.0384 113.941 -131.294 206.197 -131.294 320C-131.294 433.803 -39.0384 526.059 74.7647 526.059ZM74.7647 527.059C189.12 527.059 281.824 434.355 281.824 320C281.824 205.645 189.12 112.941 74.7647 112.941C-39.5907 112.941 -132.294 205.645 -132.294 320C-132.294 434.355 -39.5907 527.059 74.7647 527.059Z" fill="#513EB4"/>
<path fill-rule="evenodd" clip-rule="evenodd" d="M74.7647 469.588C157.38 469.588 224.353 402.615 224.353 320C224.353 237.385 157.38 170.412 74.7647 170.412C-7.85056 170.412 -74.8235 237.385 -74.8235 320C-74.8235 402.615 -7.85056 469.588 74.7647 469.588ZM74.7647 470.588C157.932 470.588 225.353 403.168 225.353 320C225.353 236.832 157.932 169.412 74.7647 169.412C-8.40284 169.412 -75.8235 236.832 -75.8235 320C-75.8235 403.168 -8.40284 470.588 74.7647 470.588Z" fill="#513EB4"/>
</g>
</svg>
