<svg width="188" height="461" viewBox="0 0 188 461" fill="none" xmlns="http://www.w3.org/2000/svg">
<g opacity="0.7">
<path fill-rule="evenodd" clip-rule="evenodd" d="M-42.5 460C84.2494 460 187 357.249 187 230.5C187 103.751 84.2494 1 -42.5 1C-169.249 1 -272 103.751 -272 230.5C-272 357.249 -169.249 460 -42.5 460ZM-42.5 461C84.8016 461 188 357.802 188 230.5C188 103.198 84.8016 0 -42.5 0C-169.802 0 -273 103.198 -273 230.5C-273 357.802 -169.802 461 -42.5 461Z" fill="#513EB4"/>
<path fill-rule="evenodd" clip-rule="evenodd" d="M-39.7882 419.324C64.4962 419.324 149.035 334.784 149.035 230.5C149.035 126.216 64.4962 41.6765 -39.7882 41.6765C-144.073 41.6765 -228.612 126.216 -228.612 230.5C-228.612 334.784 -144.073 419.324 -39.7882 419.324ZM-39.7882 420.324C65.0485 420.324 150.035 335.337 150.035 230.5C150.035 125.663 65.0485 40.6765 -39.7882 40.6765C-144.625 40.6765 -229.612 125.663 -229.612 230.5C-229.612 335.337 -144.625 420.324 -39.7882 420.324Z" fill="#513EB4"/>
<path fill-rule="evenodd" clip-rule="evenodd" d="M-39.7883 378.647C42.0311 378.647 108.359 312.319 108.359 230.5C108.359 148.681 42.0311 82.353 -39.7883 82.353C-121.608 82.353 -187.935 148.681 -187.935 230.5C-187.935 312.319 -121.608 378.647 -39.7883 378.647ZM-39.7883 379.647C42.5833 379.647 109.359 312.872 109.359 230.5C109.359 148.128 42.5833 81.353 -39.7883 81.353C-122.16 81.353 -188.935 148.128 -188.935 230.5C-188.935 312.872 -122.16 379.647 -39.7883 379.647Z" fill="#513EB4"/>
<path fill-rule="evenodd" clip-rule="evenodd" d="M-39.7882 337.971C19.5662 337.971 67.6824 289.854 67.6824 230.5C67.6824 171.146 19.5662 123.029 -39.7882 123.029C-99.1426 123.029 -147.259 171.146 -147.259 230.5C-147.259 289.854 -99.1426 337.971 -39.7882 337.971ZM-39.7882 338.971C20.1184 338.971 68.6824 290.407 68.6824 230.5C68.6824 170.593 20.1184 122.029 -39.7882 122.029C-99.6949 122.029 -148.259 170.593 -148.259 230.5C-148.259 290.407 -99.6949 338.971 -39.7882 338.971Z" fill="#513EB4"/>
</g>
</svg>
