<svg width="463" height="640" viewBox="0 0 463 640" fill="none" xmlns="http://www.w3.org/2000/svg">
<g opacity="0.7">
<path fill-rule="evenodd" clip-rule="evenodd" d="M320 639C496.179 639 639 496.179 639 320C639 143.821 496.179 1 320 1C143.821 1 1 143.821 1 320C1 496.179 143.821 639 320 639ZM320 640C496.731 640 640 496.731 640 320C640 143.269 496.731 0 320 0C143.269 0 0 143.269 0 320C0 496.731 143.269 640 320 640Z" fill="#513EB4"/>
<path fill-rule="evenodd" clip-rule="evenodd" d="M323.765 582.529C468.756 582.529 586.294 464.991 586.294 320C586.294 175.009 468.756 57.4706 323.765 57.4706C178.774 57.4706 61.2353 175.009 61.2353 320C61.2353 464.991 178.774 582.529 323.765 582.529ZM323.765 583.529C469.308 583.529 587.294 465.543 587.294 320C587.294 174.457 469.308 56.4706 323.765 56.4706C178.221 56.4706 60.2353 174.457 60.2353 320C60.2353 465.543 178.221 583.529 323.765 583.529Z" fill="#513EB4"/>
<path fill-rule="evenodd" clip-rule="evenodd" d="M323.765 526.059C437.568 526.059 529.824 433.803 529.824 320C529.824 206.197 437.568 113.941 323.765 113.941C209.962 113.941 117.706 206.197 117.706 320C117.706 433.803 209.962 526.059 323.765 526.059ZM323.765 527.059C438.12 527.059 530.824 434.355 530.824 320C530.824 205.645 438.12 112.941 323.765 112.941C209.409 112.941 116.706 205.645 116.706 320C116.706 434.355 209.409 527.059 323.765 527.059Z" fill="#513EB4"/>
<path fill-rule="evenodd" clip-rule="evenodd" d="M323.765 469.588C406.38 469.588 473.353 402.615 473.353 320C473.353 237.385 406.38 170.412 323.765 170.412C241.149 170.412 174.177 237.385 174.177 320C174.177 402.615 241.149 469.588 323.765 469.588ZM323.765 470.588C406.932 470.588 474.353 403.168 474.353 320C474.353 236.832 406.932 169.412 323.765 169.412C240.597 169.412 173.177 236.832 173.177 320C173.177 403.168 240.597 470.588 323.765 470.588Z" fill="#513EB4"/>
</g>
</svg>
