<svg width="353" height="353" viewBox="0 0 353 353" fill="none" xmlns="http://www.w3.org/2000/svg">
<g opacity="0.7">
<path fill-rule="evenodd" clip-rule="evenodd" d="M176.5 352C273.426 352 352 273.426 352 176.5C352 79.574 273.426 1 176.5 1C79.574 1 1 79.574 1 176.5C1 273.426 79.574 352 176.5 352ZM176.5 353C273.978 353 353 273.978 353 176.5C353 79.0217 273.978 0 176.5 0C79.0217 0 0 79.0217 0 176.5C0 273.978 79.0217 353 176.5 353Z" fill="#513EB4"/>
<path fill-rule="evenodd" clip-rule="evenodd" d="M178.576 320.853C258.3 320.853 322.929 256.224 322.929 176.5C322.929 96.7761 258.3 32.1471 178.576 32.1471C98.8525 32.1471 34.2235 96.7761 34.2235 176.5C34.2235 256.224 98.8525 320.853 178.576 320.853ZM178.576 321.853C258.853 321.853 323.929 256.776 323.929 176.5C323.929 96.2239 258.853 31.1471 178.576 31.1471C98.3003 31.1471 33.2235 96.2239 33.2235 176.5C33.2235 256.776 98.3003 321.853 178.576 321.853Z" fill="#513EB4"/>
<path fill-rule="evenodd" clip-rule="evenodd" d="M178.576 289.706C241.098 289.706 291.782 239.022 291.782 176.5C291.782 113.978 241.098 63.2941 178.576 63.2941C116.055 63.2941 65.3706 113.978 65.3706 176.5C65.3706 239.022 116.055 289.706 178.576 289.706ZM178.576 290.706C241.651 290.706 292.782 239.574 292.782 176.5C292.782 113.426 241.651 62.2941 178.576 62.2941C115.502 62.2941 64.3706 113.426 64.3706 176.5C64.3706 239.574 115.502 290.706 178.576 290.706Z" fill="#513EB4"/>
<path fill-rule="evenodd" clip-rule="evenodd" d="M178.576 258.559C223.896 258.559 260.635 221.82 260.635 176.5C260.635 131.18 223.896 94.4412 178.576 94.4412C133.257 94.4412 96.5177 131.18 96.5177 176.5C96.5177 221.82 133.257 258.559 178.576 258.559ZM178.576 259.559C224.449 259.559 261.635 222.372 261.635 176.5C261.635 130.628 224.449 93.4412 178.576 93.4412C132.704 93.4412 95.5177 130.628 95.5177 176.5C95.5177 222.372 132.704 259.559 178.576 259.559Z" fill="#513EB4"/>
</g>
</svg>
