<svg width="222" height="175" viewBox="0 0 222 175" fill="none" xmlns="http://www.w3.org/2000/svg">
<path d="M12.6 65.34C12.6 66.0733 12.4133 66.7133 12.04 67.26C11.6667 67.8067 11.16 68.2333 10.52 68.54C9.89333 68.8467 9.2 69 8.44 69H1.7V54.8H8.76C9.42667 54.8 10 54.98 10.48 55.34C10.9733 55.6867 11.3467 56.14 11.6 56.7C11.8667 57.2467 12 57.82 12 58.42C12 59.1133 11.82 59.7667 11.46 60.38C11.1133 60.98 10.6133 61.4267 9.96 61.72C10.7733 61.96 11.4133 62.4067 11.88 63.06C12.36 63.7 12.6 64.46 12.6 65.34ZM10.78 65.02C10.78 64.58 10.68 64.1733 10.48 63.8C10.2933 63.4267 10.0333 63.1267 9.7 62.9C9.38 62.6733 9.00667 62.56 8.58 62.56H3.5V67.44H8.44C8.88 67.44 9.27333 67.3267 9.62 67.1C9.98 66.8733 10.26 66.58 10.46 66.22C10.6733 65.8467 10.78 65.4467 10.78 65.02ZM3.5 56.36V61.1H8.02C8.44667 61.1 8.82 60.9933 9.14 60.78C9.47333 60.5667 9.73333 60.28 9.92 59.92C10.12 59.56 10.22 59.1667 10.22 58.74C10.22 58.2867 10.1267 57.8867 9.94 57.54C9.76667 57.18 9.52 56.8933 9.2 56.68C8.89333 56.4667 8.54 56.36 8.14 56.36H3.5ZM14.818 69V58.56H16.578V62.88H22.018V58.56H23.778V69H22.018V64.44H16.578V69H14.818ZM31.2353 69.2C30.4486 69.2 29.7286 69.06 29.0753 68.78C28.4353 68.4867 27.8753 68.0933 27.3953 67.6C26.9286 67.0933 26.562 66.5133 26.2953 65.86C26.042 65.2067 25.9153 64.5133 25.9153 63.78C25.9153 62.7933 26.142 61.8933 26.5953 61.08C27.0486 60.2667 27.6753 59.6133 28.4753 59.12C29.2886 58.6267 30.2153 58.38 31.2553 58.38C32.3086 58.38 33.222 58.6333 33.9953 59.14C34.782 59.6333 35.3886 60.2867 35.8153 61.1C36.2553 61.9 36.4753 62.7667 36.4753 63.7C36.4753 63.8333 36.4686 63.9667 36.4553 64.1C36.4553 64.22 36.4486 64.3133 36.4353 64.38H27.7753C27.8286 65.06 28.0153 65.6667 28.3353 66.2C28.6686 66.72 29.0953 67.1333 29.6153 67.44C30.1353 67.7333 30.6953 67.88 31.2953 67.88C31.9353 67.88 32.5353 67.72 33.0953 67.4C33.6686 67.08 34.062 66.66 34.2753 66.14L35.7953 66.56C35.5686 67.0667 35.2286 67.52 34.7753 67.92C34.3353 68.32 33.8086 68.6333 33.1953 68.86C32.5953 69.0867 31.942 69.2 31.2353 69.2ZM27.7153 63.16H34.8353C34.782 62.48 34.5886 61.88 34.2553 61.36C33.922 60.84 33.4953 60.4333 32.9753 60.14C32.4553 59.8467 31.882 59.7 31.2553 59.7C30.642 59.7 30.0753 59.8467 29.5553 60.14C29.0353 60.4333 28.6086 60.84 28.2753 61.36C27.9553 61.88 27.7686 62.48 27.7153 63.16ZM43.0517 69.2C42.2651 69.2 41.5451 69.06 40.8917 68.78C40.2517 68.4867 39.6917 68.0867 39.2117 67.58C38.7451 67.0733 38.3784 66.4933 38.1117 65.84C37.8584 65.1867 37.7317 64.4933 37.7317 63.76C37.7317 62.7733 37.9517 61.8733 38.3917 61.06C38.8317 60.2467 39.4517 59.6 40.2517 59.12C41.0517 58.6267 41.9784 58.38 43.0317 58.38C44.0584 58.38 44.9517 58.6133 45.7117 59.08C46.4851 59.5333 47.0584 60.1467 47.4317 60.92L45.7117 61.46C45.4451 60.9667 45.0717 60.5867 44.5917 60.32C44.1117 60.04 43.5784 59.9 42.9917 59.9C42.3517 59.9 41.7651 60.0667 41.2317 60.4C40.7117 60.7333 40.2984 61.1933 39.9917 61.78C39.6851 62.3533 39.5317 63.0133 39.5317 63.76C39.5317 64.4933 39.6851 65.16 39.9917 65.76C40.3117 66.3467 40.7317 66.8133 41.2517 67.16C41.7851 67.5067 42.3717 67.68 43.0117 67.68C43.4251 67.68 43.8184 67.6067 44.1917 67.46C44.5784 67.3133 44.9117 67.12 45.1917 66.88C45.4851 66.6267 45.6851 66.3533 45.7917 66.06L47.5117 66.58C47.2984 67.0867 46.9717 67.54 46.5317 67.94C46.1051 68.3267 45.5917 68.6333 44.9917 68.86C44.4051 69.0867 43.7584 69.2 43.0517 69.2ZM54.0283 69.2C53.2416 69.2 52.5216 69.06 51.8683 68.78C51.2283 68.4867 50.6683 68.0933 50.1883 67.6C49.7216 67.0933 49.3549 66.5133 49.0883 65.86C48.8349 65.2067 48.7083 64.5133 48.7083 63.78C48.7083 62.7933 48.9349 61.8933 49.3883 61.08C49.8416 60.2667 50.4683 59.6133 51.2683 59.12C52.0816 58.6267 53.0083 58.38 54.0483 58.38C55.1016 58.38 56.0149 58.6333 56.7883 59.14C57.5749 59.6333 58.1816 60.2867 58.6083 61.1C59.0483 61.9 59.2683 62.7667 59.2683 63.7C59.2683 63.8333 59.2616 63.9667 59.2483 64.1C59.2483 64.22 59.2416 64.3133 59.2283 64.38H50.5683C50.6216 65.06 50.8083 65.6667 51.1283 66.2C51.4616 66.72 51.8883 67.1333 52.4083 67.44C52.9283 67.7333 53.4883 67.88 54.0883 67.88C54.7283 67.88 55.3283 67.72 55.8883 67.4C56.4616 67.08 56.8549 66.66 57.0683 66.14L58.5883 66.56C58.3616 67.0667 58.0216 67.52 57.5683 67.92C57.1283 68.32 56.6016 68.6333 55.9883 68.86C55.3883 69.0867 54.7349 69.2 54.0283 69.2ZM50.5083 63.16H57.6283C57.5749 62.48 57.3816 61.88 57.0483 61.36C56.7149 60.84 56.2883 60.4333 55.7683 60.14C55.2483 59.8467 54.6749 59.7 54.0483 59.7C53.4349 59.7 52.8683 59.8467 52.3483 60.14C51.8283 60.4333 51.4016 60.84 51.0683 61.36C50.7483 61.88 50.5616 62.48 50.5083 63.16ZM61.2047 69V58.56H62.9647V62.88H68.4047V58.56H70.1647V69H68.4047V64.44H62.9647V69H61.2047ZM72.982 69V58.58H74.742V66.64L80.582 58.56H82.182V69H80.422V61.1L74.662 69H72.982ZM89.6142 69.2C88.8276 69.2 88.1076 69.06 87.4542 68.78C86.8142 68.4867 86.2542 68.0933 85.7742 67.6C85.3076 67.0933 84.9409 66.5133 84.6742 65.86C84.4209 65.2067 84.2942 64.5133 84.2942 63.78C84.2942 62.7933 84.5209 61.8933 84.9742 61.08C85.4276 60.2667 86.0542 59.6133 86.8542 59.12C87.6676 58.6267 88.5942 58.38 89.6342 58.38C90.6876 58.38 91.6009 58.6333 92.3742 59.14C93.1609 59.6333 93.7676 60.2867 94.1942 61.1C94.6342 61.9 94.8542 62.7667 94.8542 63.7C94.8542 63.8333 94.8476 63.9667 94.8342 64.1C94.8342 64.22 94.8276 64.3133 94.8142 64.38H86.1542C86.2076 65.06 86.3942 65.6667 86.7142 66.2C87.0476 66.72 87.4742 67.1333 87.9942 67.44C88.5142 67.7333 89.0742 67.88 89.6742 67.88C90.3142 67.88 90.9142 67.72 91.4742 67.4C92.0476 67.08 92.4409 66.66 92.6542 66.14L94.1742 66.56C93.9476 67.0667 93.6076 67.52 93.1542 67.92C92.7142 68.32 92.1876 68.6333 91.5742 68.86C90.9742 69.0867 90.3209 69.2 89.6142 69.2ZM86.0942 63.16H93.2142C93.1609 62.48 92.9676 61.88 92.6342 61.36C92.3009 60.84 91.8742 60.4333 91.3542 60.14C90.8342 59.8467 90.2609 59.7 89.6342 59.7C89.0209 59.7 88.4542 59.8467 87.9342 60.14C87.4142 60.4333 86.9876 60.84 86.6542 61.36C86.3342 61.88 86.1476 62.48 86.0942 63.16ZM100.709 71.46V67.44H100.929C101.223 67.44 101.489 67.3533 101.729 67.18C101.983 67.0067 102.203 66.7067 102.389 66.28C102.589 65.84 102.749 65.24 102.869 64.48C102.989 63.72 103.069 62.7533 103.109 61.58L103.209 58.56H110.309V67.44H111.729V71.46H110.169V69H102.269V71.46H100.709ZM103.389 67.44H108.549V60.12H104.769L104.709 61.74C104.669 62.8733 104.589 63.8267 104.469 64.6C104.363 65.36 104.216 65.9667 104.029 66.42C103.856 66.8733 103.643 67.2133 103.389 67.44ZM112.866 65.98C112.866 65.3133 113.052 64.74 113.426 64.26C113.812 63.7667 114.339 63.3867 115.006 63.12C115.672 62.8533 116.446 62.72 117.326 62.72C117.792 62.72 118.286 62.76 118.806 62.84C119.326 62.9067 119.786 63.0133 120.186 63.16V62.4C120.186 61.6 119.946 60.9733 119.466 60.52C118.986 60.0533 118.306 59.82 117.426 59.82C116.852 59.82 116.299 59.9267 115.766 60.14C115.246 60.34 114.692 60.6333 114.106 61.02L113.466 59.78C114.146 59.3133 114.826 58.9667 115.506 58.74C116.186 58.5 116.892 58.38 117.626 58.38C118.959 58.38 120.012 58.7533 120.786 59.5C121.559 60.2333 121.946 61.26 121.946 62.58V67C121.946 67.2133 121.986 67.3733 122.066 67.48C122.159 67.5733 122.306 67.6267 122.506 67.64V69C122.332 69.0267 122.179 69.0467 122.046 69.06C121.926 69.0733 121.826 69.08 121.746 69.08C121.332 69.08 121.019 68.9667 120.806 68.74C120.606 68.5133 120.492 68.2733 120.466 68.02L120.426 67.36C119.972 67.9467 119.379 68.4 118.646 68.72C117.912 69.04 117.186 69.2 116.466 69.2C115.772 69.2 115.152 69.06 114.606 68.78C114.059 68.4867 113.632 68.1 113.326 67.62C113.019 67.1267 112.866 66.58 112.866 65.98ZM119.666 66.72C119.826 66.5333 119.952 66.3467 120.046 66.16C120.139 65.96 120.186 65.7933 120.186 65.66V64.36C119.772 64.2 119.339 64.08 118.886 64C118.432 63.9067 117.986 63.86 117.546 63.86C116.652 63.86 115.926 64.04 115.366 64.4C114.819 64.7467 114.546 65.2267 114.546 65.84C114.546 66.1733 114.632 66.5 114.806 66.82C114.992 67.1267 115.259 67.38 115.606 67.58C115.966 67.78 116.406 67.88 116.926 67.88C117.472 67.88 117.992 67.7733 118.486 67.56C118.979 67.3333 119.372 67.0533 119.666 66.72ZM124.74 69V58.56H126.5V62.88H131.94V58.56H133.7V69H131.94V64.44H126.5V69H124.74ZM136.517 69V58.56H138.277V62.88H143.717V58.56H145.477V69H143.717V64.44H138.277V69H136.517ZM148.295 69V58.56H150.055V62.12H152.175C153.401 62.12 154.328 62.4333 154.955 63.06C155.595 63.6733 155.915 64.48 155.915 65.48C155.915 66.1467 155.775 66.7467 155.495 67.28C155.228 67.8133 154.828 68.2333 154.295 68.54C153.761 68.8467 153.095 69 152.295 69H148.295ZM150.055 67.62H152.055C152.548 67.62 152.941 67.5267 153.235 67.34C153.541 67.14 153.768 66.88 153.915 66.56C154.061 66.24 154.135 65.8933 154.135 65.52C154.135 65.16 154.068 64.8267 153.935 64.52C153.801 64.2133 153.581 63.9667 153.275 63.78C152.968 63.5933 152.548 63.5 152.015 63.5H150.055V67.62ZM157.715 69V58.58H159.475V69H157.715ZM163.098 58.56L165.858 62.4L166.018 62.72L166.198 62.4L168.938 58.56H170.898L167.038 63.8L170.918 69H168.958L166.198 65.18L166.018 64.88L165.858 65.18L163.098 69H161.138L165.018 63.8L161.158 58.56H163.098ZM1.4 93V82.56H6.8C7.42667 82.56 7.94667 82.6867 8.36 82.94C8.77333 83.18 9.08 83.4933 9.28 83.88C9.49333 84.2667 9.6 84.68 9.6 85.12C9.6 85.68 9.46667 86.1867 9.2 86.64C8.93333 87.08 8.54667 87.4133 8.04 87.64C8.64 87.8133 9.12667 88.1267 9.5 88.58C9.87333 89.02 10.06 89.5667 10.06 90.22C10.06 90.8067 9.92 91.3067 9.64 91.72C9.36 92.1333 8.96667 92.4533 8.46 92.68C7.95333 92.8933 7.36667 93 6.7 93H1.4ZM3.08 91.76H6.66C6.98 91.76 7.26667 91.68 7.52 91.52C7.78667 91.36 7.99333 91.1467 8.14 90.88C8.28667 90.6133 8.36 90.3333 8.36 90.04C8.36 89.72 8.28667 89.4333 8.14 89.18C8.00667 88.9133 7.81333 88.7067 7.56 88.56C7.32 88.4 7.04 88.32 6.72 88.32H3.08V91.76ZM3.08 87.16H6.34C6.66 87.16 6.94 87.08 7.18 86.92C7.42 86.7467 7.60667 86.5267 7.74 86.26C7.87333 85.9933 7.94 85.7133 7.94 85.42C7.94 84.98 7.79333 84.6 7.5 84.28C7.22 83.96 6.85333 83.8 6.4 83.8H3.08V87.16ZM23.2375 93V91.7C22.3442 91.66 21.5042 91.4867 20.7175 91.18C19.9308 90.8733 19.2375 90.4467 18.6375 89.9C18.0375 89.3533 17.5642 88.7067 17.2175 87.96C16.8842 87.2 16.7175 86.3667 16.7175 85.46C16.7175 84.5 16.8975 83.6467 17.2575 82.9C17.6175 82.14 18.0975 81.4933 18.6975 80.96C19.3108 80.4133 20.0042 79.9933 20.7775 79.7C21.5642 79.4067 22.3842 79.24 23.2375 79.2V78.14H24.9575V79.2C25.8242 79.24 26.6508 79.4133 27.4375 79.72C28.2242 80.0267 28.9175 80.4533 29.5175 81C30.1308 81.5333 30.6108 82.18 30.9575 82.94C31.3042 83.6867 31.4775 84.5267 31.4775 85.46C31.4775 86.3933 31.2975 87.24 30.9375 88C30.5908 88.7467 30.1108 89.3933 29.4975 89.94C28.8842 90.4733 28.1842 90.8933 27.3975 91.2C26.6242 91.4933 25.8108 91.66 24.9575 91.7V93H23.2375ZM23.2775 90.22V80.68C22.4108 80.72 21.6108 80.94 20.8775 81.34C20.1575 81.7267 19.5842 82.2667 19.1575 82.96C18.7308 83.6533 18.5175 84.4867 18.5175 85.46C18.5175 86.1933 18.6442 86.8533 18.8975 87.44C19.1642 88.0133 19.5175 88.5 19.9575 88.9C20.4108 89.3 20.9242 89.6133 21.4975 89.84C22.0708 90.0667 22.6642 90.1933 23.2775 90.22ZM24.9175 90.22C25.7842 90.18 26.5775 89.9667 27.2975 89.58C28.0175 89.18 28.5908 88.6333 29.0175 87.94C29.4575 87.2333 29.6775 86.4067 29.6775 85.46C29.6775 84.7267 29.5508 84.0733 29.2975 83.5C29.0442 82.9267 28.6908 82.4333 28.2375 82.02C27.7975 81.6067 27.2908 81.2867 26.7175 81.06C26.1442 80.8333 25.5442 80.7067 24.9175 80.68V90.22ZM34.0852 93V78.8H35.8852V90.5L44.1052 78.8H45.7852V93H43.9852V81.52L35.8652 93H34.0852ZM48.3581 85.8C48.3581 84.9333 48.5048 84.0867 48.7981 83.26C49.1048 82.42 49.5448 81.66 50.1181 80.98C50.7048 80.2867 51.4181 79.74 52.2581 79.34C53.0981 78.9267 54.0515 78.72 55.1181 78.72C56.3848 78.72 57.4715 79.0133 58.3781 79.6C59.2848 80.1733 59.9581 80.9133 60.3981 81.82L58.9781 82.74C58.6981 82.14 58.3381 81.6667 57.8981 81.32C57.4715 80.96 57.0048 80.7067 56.4981 80.56C56.0048 80.4133 55.5181 80.34 55.0381 80.34C54.2515 80.34 53.5515 80.5 52.9381 80.82C52.3381 81.14 51.8315 81.5667 51.4181 82.1C51.0048 82.6333 50.6915 83.2333 50.4781 83.9C50.2781 84.5533 50.1781 85.2133 50.1781 85.88C50.1781 86.6133 50.2981 87.32 50.5381 88C50.7915 88.68 51.1381 89.28 51.5781 89.8C52.0181 90.32 52.5381 90.7333 53.1381 91.04C53.7381 91.3467 54.3915 91.5 55.0981 91.5C55.5915 91.5 56.0981 91.4133 56.6181 91.24C57.1381 91.0667 57.6248 90.8 58.0781 90.44C58.5315 90.0667 58.8915 89.5867 59.1581 89L60.6581 89.82C60.3648 90.5267 59.9115 91.1267 59.2981 91.62C58.6848 92.1133 57.9981 92.4867 57.2381 92.74C56.4915 92.9933 55.7515 93.12 55.0181 93.12C54.0448 93.12 53.1515 92.9133 52.3381 92.5C51.5248 92.0733 50.8181 91.5133 50.2181 90.82C49.6315 90.1133 49.1715 89.3267 48.8381 88.46C48.5181 87.58 48.3581 86.6933 48.3581 85.8ZM73.5695 93V91.7C72.6762 91.66 71.8362 91.4867 71.0495 91.18C70.2629 90.8733 69.5695 90.4467 68.9695 89.9C68.3695 89.3533 67.8962 88.7067 67.5495 87.96C67.2162 87.2 67.0495 86.3667 67.0495 85.46C67.0495 84.5 67.2295 83.6467 67.5895 82.9C67.9495 82.14 68.4295 81.4933 69.0295 80.96C69.6429 80.4133 70.3362 79.9933 71.1095 79.7C71.8962 79.4067 72.7162 79.24 73.5695 79.2V78.14H75.2895V79.2C76.1562 79.24 76.9829 79.4133 77.7695 79.72C78.5562 80.0267 79.2495 80.4533 79.8495 81C80.4629 81.5333 80.9429 82.18 81.2895 82.94C81.6362 83.6867 81.8095 84.5267 81.8095 85.46C81.8095 86.3933 81.6295 87.24 81.2695 88C80.9229 88.7467 80.4429 89.3933 79.8295 89.94C79.2162 90.4733 78.5162 90.8933 77.7295 91.2C76.9562 91.4933 76.1429 91.66 75.2895 91.7V93H73.5695ZM73.6095 90.22V80.68C72.7429 80.72 71.9429 80.94 71.2095 81.34C70.4895 81.7267 69.9162 82.2667 69.4895 82.96C69.0629 83.6533 68.8495 84.4867 68.8495 85.46C68.8495 86.1933 68.9762 86.8533 69.2295 87.44C69.4962 88.0133 69.8495 88.5 70.2895 88.9C70.7429 89.3 71.2562 89.6133 71.8295 89.84C72.4029 90.0667 72.9962 90.1933 73.6095 90.22ZM75.2495 90.22C76.1162 90.18 76.9095 89.9667 77.6295 89.58C78.3495 89.18 78.9229 88.6333 79.3495 87.94C79.7895 87.2333 80.0095 86.4067 80.0095 85.46C80.0095 84.7267 79.8829 84.0733 79.6295 83.5C79.3762 82.9267 79.0229 82.4333 78.5695 82.02C78.1295 81.6067 77.6229 81.2867 77.0495 81.06C76.4762 80.8333 75.8762 80.7067 75.2495 80.68V90.22ZM84.3172 93V78.8H90.2372C90.8639 78.8 91.4372 78.9333 91.9572 79.2C92.4772 79.4533 92.9305 79.8 93.3172 80.24C93.7039 80.6667 94.0039 81.1533 94.2172 81.7C94.4305 82.2333 94.5372 82.78 94.5372 83.34C94.5372 84.1133 94.3639 84.8533 94.0172 85.56C93.6705 86.2533 93.1839 86.82 92.5572 87.26C91.9305 87.6867 91.1972 87.9 90.3572 87.9H86.1172V93H84.3172ZM86.1172 86.3H90.2572C90.7505 86.3 91.1772 86.1667 91.5372 85.9C91.9105 85.6333 92.1972 85.2733 92.3972 84.82C92.6105 84.3667 92.7172 83.8733 92.7172 83.34C92.7172 82.78 92.5972 82.28 92.3572 81.84C92.1172 81.3867 91.8039 81.0333 91.4172 80.78C91.0305 80.5267 90.6039 80.4 90.1372 80.4H86.1172V86.3ZM94.4109 95.72V91.4H95.0509C95.4243 91.4 95.7509 91.2533 96.0309 90.96C96.3109 90.6533 96.5509 90.1733 96.7509 89.52C96.9509 88.8533 97.1109 87.9667 97.2309 86.86C97.3509 85.7533 97.4376 84.3867 97.4909 82.76L97.5909 78.8H106.391V91.4H108.151V95.72H106.551V93H96.0109V95.72H94.4109ZM97.4509 91.4H104.591V80.4H99.2509L99.1909 82.98C99.1509 84.66 99.0643 86.0667 98.9309 87.2C98.7976 88.3333 98.6109 89.24 98.3709 89.92C98.1309 90.6 97.8243 91.0933 97.4509 91.4ZM116.308 93.1C115.308 93.1 114.401 92.9 113.588 92.5C112.774 92.1 112.068 91.56 111.468 90.88C110.881 90.1867 110.428 89.4133 110.108 88.56C109.788 87.6933 109.628 86.8067 109.628 85.9C109.628 84.9533 109.794 84.0533 110.128 83.2C110.474 82.3333 110.948 81.5667 111.548 80.9C112.161 80.22 112.874 79.6867 113.688 79.3C114.501 78.9 115.388 78.7 116.348 78.7C117.348 78.7 118.254 78.9067 119.068 79.32C119.881 79.7333 120.581 80.2867 121.168 80.98C121.754 81.6733 122.208 82.4467 122.528 83.3C122.848 84.1533 123.008 85.0267 123.008 85.92C123.008 86.8667 122.841 87.7733 122.508 88.64C122.174 89.4933 121.701 90.26 121.088 90.94C120.488 91.6067 119.781 92.1333 118.968 92.52C118.154 92.9067 117.268 93.1 116.308 93.1ZM111.448 85.9C111.448 86.62 111.561 87.32 111.788 88C112.028 88.6667 112.361 89.26 112.788 89.78C113.214 90.3 113.728 90.7133 114.328 91.02C114.928 91.3267 115.594 91.48 116.328 91.48C117.088 91.48 117.768 91.32 118.368 91C118.968 90.68 119.474 90.2533 119.888 89.72C120.314 89.1867 120.634 88.5867 120.848 87.92C121.074 87.2533 121.188 86.58 121.188 85.9C121.188 85.18 121.068 84.4867 120.828 83.82C120.601 83.1533 120.268 82.56 119.828 82.04C119.401 81.5067 118.888 81.0933 118.288 80.8C117.701 80.4933 117.048 80.34 116.328 80.34C115.568 80.34 114.888 80.5 114.288 80.82C113.688 81.1267 113.174 81.5467 112.748 82.08C112.334 82.6133 112.014 83.2133 111.788 83.88C111.561 84.5333 111.448 85.2067 111.448 85.9Z" fill="#000846"/>
<path d="M9.104 133V122.632H4.464L4.4 125.032C4.34667 126.6 4.23467 127.901 4.064 128.936C3.89333 129.971 3.65333 130.787 3.344 131.384C3.03467 131.971 2.656 132.392 2.208 132.648C1.76 132.893 1.22667 133.016 0.608 133.016V132.024C1.024 132.024 1.392 131.917 1.712 131.704C2.032 131.491 2.304 131.117 2.528 130.584C2.752 130.051 2.928 129.315 3.056 128.376C3.19467 127.427 3.28533 126.227 3.328 124.776L3.424 121.64H10.208V133H9.104ZM19.433 133.16C18.7077 133.16 18.0623 132.995 17.497 132.664C16.9423 132.333 16.4943 131.88 16.153 131.304C15.8223 130.717 15.6303 130.056 15.577 129.32H13.913V133H12.825V124.664H13.913V128.36H15.577C15.641 127.592 15.8437 126.92 16.185 126.344C16.5263 125.768 16.9743 125.32 17.529 125C18.0943 124.68 18.729 124.52 19.433 124.52C20.2543 124.52 20.9637 124.712 21.561 125.096C22.1583 125.48 22.6223 125.997 22.953 126.648C23.2837 127.299 23.449 128.035 23.449 128.856C23.449 129.699 23.2783 130.445 22.937 131.096C22.6063 131.736 22.137 132.243 21.529 132.616C20.9317 132.979 20.233 133.16 19.433 133.16ZM19.433 132.2C20.009 132.2 20.5157 132.056 20.953 131.768C21.3903 131.48 21.7263 131.085 21.961 130.584C22.2063 130.083 22.329 129.507 22.329 128.856C22.329 128.163 22.201 127.565 21.945 127.064C21.6997 126.563 21.3583 126.173 20.921 125.896C20.4837 125.619 19.9877 125.48 19.433 125.48C18.889 125.48 18.4037 125.624 17.977 125.912C17.5503 126.189 17.2197 126.584 16.985 127.096C16.7503 127.597 16.633 128.184 16.633 128.856C16.633 129.528 16.7503 130.12 16.985 130.632C17.2303 131.133 17.5663 131.523 17.993 131.8C18.4197 132.067 18.8997 132.2 19.433 132.2ZM29.1021 133.16C27.7581 133.16 26.7395 132.749 26.0461 131.928C25.3635 131.096 25.0221 129.949 25.0221 128.488C25.0221 127.453 25.1075 126.579 25.2781 125.864C25.4488 125.149 25.6995 124.563 26.0301 124.104C26.3608 123.635 26.7661 123.251 27.2461 122.952C27.7368 122.653 28.2968 122.408 28.9261 122.216L32.4301 121.064L32.5261 122.008L29.1501 123.112C28.5101 123.325 27.9768 123.597 27.5501 123.928C27.1235 124.259 26.7875 124.68 26.5421 125.192C26.3075 125.693 26.1528 126.349 26.0781 127.16C26.3555 126.541 26.7821 126.067 27.3581 125.736C27.9341 125.395 28.6008 125.224 29.3581 125.224C30.1688 125.224 30.8568 125.389 31.4221 125.72C31.9981 126.051 32.4355 126.509 32.7341 127.096C33.0328 127.683 33.1821 128.36 33.1821 129.128C33.1821 129.939 33.0221 130.648 32.7021 131.256C32.3928 131.853 31.9341 132.323 31.3261 132.664C30.7288 132.995 29.9875 133.16 29.1021 133.16ZM29.1021 132.2C30.0515 132.2 30.7821 131.928 31.2941 131.384C31.8168 130.829 32.0781 130.093 32.0781 129.176C32.0781 128.28 31.8221 127.549 31.3101 126.984C30.8088 126.419 30.0728 126.136 29.1021 126.136C28.5475 126.136 28.0461 126.253 27.5981 126.488C27.1501 126.723 26.7928 127.064 26.5261 127.512C26.2701 127.96 26.1421 128.515 26.1421 129.176C26.1421 129.752 26.2541 130.269 26.4781 130.728C26.7128 131.187 27.0488 131.549 27.4861 131.816C27.9235 132.072 28.4621 132.2 29.1021 132.2ZM38.5645 133.16C37.9672 133.16 37.4125 133.048 36.9005 132.824C36.3992 132.589 35.9618 132.275 35.5885 131.88C35.2258 131.475 34.9432 131.016 34.7405 130.504C34.5378 129.981 34.4365 129.432 34.4365 128.856C34.4365 128.259 34.5378 127.704 34.7405 127.192C34.9432 126.669 35.2312 126.211 35.6045 125.816C35.9778 125.411 36.4152 125.096 36.9165 124.872C37.4285 124.637 37.9832 124.52 38.5805 124.52C39.1778 124.52 39.7272 124.637 40.2285 124.872C40.7298 125.096 41.1672 125.411 41.5405 125.816C41.9138 126.211 42.2018 126.669 42.4045 127.192C42.6072 127.704 42.7085 128.259 42.7085 128.856C42.7085 129.432 42.6072 129.981 42.4045 130.504C42.2018 131.016 41.9138 131.475 41.5405 131.88C41.1778 132.275 40.7405 132.589 40.2285 132.824C39.7272 133.048 39.1725 133.16 38.5645 133.16ZM35.5405 128.872C35.5405 129.491 35.6738 130.056 35.9405 130.568C36.2178 131.069 36.5858 131.469 37.0445 131.768C37.5032 132.056 38.0098 132.2 38.5645 132.2C39.1192 132.2 39.6258 132.051 40.0845 131.752C40.5432 131.453 40.9112 131.048 41.1885 130.536C41.4658 130.013 41.6045 129.448 41.6045 128.84C41.6045 128.221 41.4658 127.656 41.1885 127.144C40.9112 126.632 40.5432 126.227 40.0845 125.928C39.6258 125.629 39.1192 125.48 38.5645 125.48C38.0098 125.48 37.5032 125.635 37.0445 125.944C36.5965 126.253 36.2338 126.664 35.9565 127.176C35.6792 127.677 35.5405 128.243 35.5405 128.872ZM44.5121 133V124.68H45.6001V131.528L50.6721 124.664H51.6481V133H50.5601V126.264L45.5681 133H44.5121ZM48.0961 123.608C47.3708 123.608 46.8108 123.437 46.4161 123.096C46.0215 122.755 45.8241 122.323 45.8241 121.8H46.6241C46.6241 122.12 46.7415 122.387 46.9761 122.6C47.2215 122.813 47.5948 122.92 48.0961 122.92C48.5868 122.92 48.9441 122.819 49.1681 122.616C49.4028 122.413 49.5361 122.141 49.5681 121.8H50.3521C50.3521 122.323 50.1548 122.755 49.7601 123.096C49.3655 123.437 48.8108 123.608 48.0961 123.608ZM62.3623 133.16C61.6689 133.16 61.0449 132.979 60.4903 132.616C59.9463 132.253 59.5143 131.805 59.1943 131.272V136.408H58.1063V124.664H59.0823V126.28C59.4129 125.757 59.8556 125.336 60.4103 125.016C60.9649 124.685 61.5569 124.52 62.1863 124.52C62.7623 124.52 63.2903 124.643 63.7703 124.888C64.2503 125.123 64.6663 125.443 65.0183 125.848C65.3703 126.253 65.6423 126.717 65.8343 127.24C66.0369 127.752 66.1383 128.285 66.1383 128.84C66.1383 129.619 65.9783 130.339 65.6583 131C65.3489 131.651 64.9116 132.173 64.3463 132.568C63.7809 132.963 63.1196 133.16 62.3623 133.16ZM62.0583 132.2C62.5169 132.2 62.9276 132.109 63.2903 131.928C63.6529 131.736 63.9623 131.48 64.2183 131.16C64.4849 130.84 64.6876 130.483 64.8263 130.088C64.9649 129.683 65.0343 129.267 65.0343 128.84C65.0343 128.392 64.9543 127.965 64.7943 127.56C64.6449 127.155 64.4263 126.797 64.1383 126.488C63.8503 126.179 63.5196 125.933 63.1463 125.752C62.7729 125.571 62.3676 125.48 61.9303 125.48C61.6529 125.48 61.3649 125.533 61.0663 125.64C60.7676 125.747 60.4796 125.901 60.2023 126.104C59.9356 126.296 59.7116 126.515 59.5303 126.76C59.3489 127.005 59.2369 127.267 59.1943 127.544V130.104C59.3649 130.499 59.5943 130.856 59.8823 131.176C60.1703 131.485 60.5009 131.736 60.8743 131.928C61.2583 132.109 61.6529 132.2 62.0583 132.2ZM67.3092 130.6C67.3092 130.077 67.4586 129.629 67.7573 129.256C68.0559 128.872 68.4666 128.579 68.9893 128.376C69.5226 128.163 70.1359 128.056 70.8293 128.056C71.2346 128.056 71.6559 128.088 72.0933 128.152C72.5306 128.216 72.9199 128.312 73.2613 128.44V127.736C73.2613 127.032 73.0533 126.472 72.6373 126.056C72.2213 125.64 71.6453 125.432 70.9093 125.432C70.4613 125.432 70.0186 125.517 69.5813 125.688C69.1546 125.848 68.7066 126.088 68.2373 126.408L67.8213 125.64C68.3653 125.267 68.8986 124.989 69.4213 124.808C69.9439 124.616 70.4773 124.52 71.0213 124.52C72.0453 124.52 72.8559 124.813 73.4533 125.4C74.0506 125.987 74.3493 126.797 74.3493 127.832V131.688C74.3493 131.837 74.3813 131.949 74.4453 132.024C74.5093 132.088 74.6106 132.125 74.7493 132.136V133C74.6319 133.011 74.5306 133.021 74.4453 133.032C74.3599 133.043 74.2959 133.043 74.2533 133.032C73.9866 133.021 73.7839 132.936 73.6453 132.776C73.5066 132.616 73.4319 132.445 73.4213 132.264L73.4053 131.656C73.0319 132.136 72.5466 132.509 71.9493 132.776C71.3519 133.032 70.7439 133.16 70.1253 133.16C69.5919 133.16 69.1066 133.048 68.6693 132.824C68.2426 132.589 67.9066 132.28 67.6613 131.896C67.4266 131.501 67.3092 131.069 67.3092 130.6ZM72.8933 131.24C73.0106 131.091 73.1013 130.947 73.1653 130.808C73.2293 130.669 73.2613 130.547 73.2613 130.44V129.224C72.8986 129.085 72.5199 128.979 72.1253 128.904C71.7413 128.829 71.3519 128.792 70.9573 128.792C70.1786 128.792 69.5493 128.947 69.0693 129.256C68.5893 129.565 68.3493 129.987 68.3493 130.52C68.3493 130.829 68.4293 131.123 68.5893 131.4C68.7493 131.667 68.9839 131.891 69.2933 132.072C69.6026 132.243 69.9653 132.328 70.3813 132.328C70.9039 132.328 71.3893 132.227 71.8373 132.024C72.2959 131.821 72.6479 131.56 72.8933 131.24ZM80.524 133.16C79.18 133.16 78.1613 132.749 77.468 131.928C76.7853 131.096 76.444 129.949 76.444 128.488C76.444 127.453 76.5293 126.579 76.7 125.864C76.8707 125.149 77.1213 124.563 77.452 124.104C77.7827 123.635 78.188 123.251 78.668 122.952C79.1587 122.653 79.7187 122.408 80.348 122.216L83.852 121.064L83.948 122.008L80.572 123.112C79.932 123.325 79.3987 123.597 78.972 123.928C78.5453 124.259 78.2093 124.68 77.964 125.192C77.7293 125.693 77.5747 126.349 77.5 127.16C77.7773 126.541 78.204 126.067 78.78 125.736C79.356 125.395 80.0227 125.224 80.78 125.224C81.5907 125.224 82.2787 125.389 82.844 125.72C83.42 126.051 83.8573 126.509 84.156 127.096C84.4547 127.683 84.604 128.36 84.604 129.128C84.604 129.939 84.444 130.648 84.124 131.256C83.8147 131.853 83.356 132.323 82.748 132.664C82.1507 132.995 81.4093 133.16 80.524 133.16ZM80.524 132.2C81.4733 132.2 82.204 131.928 82.716 131.384C83.2387 130.829 83.5 130.093 83.5 129.176C83.5 128.28 83.244 127.549 82.732 126.984C82.2307 126.419 81.4947 126.136 80.524 126.136C79.9693 126.136 79.468 126.253 79.02 126.488C78.572 126.723 78.2147 127.064 77.948 127.512C77.692 127.96 77.564 128.515 77.564 129.176C77.564 129.752 77.676 130.269 77.9 130.728C78.1347 131.187 78.4707 131.549 78.908 131.816C79.3453 132.072 79.884 132.2 80.524 132.2ZM89.9864 133.16C89.389 133.16 88.8344 133.048 88.3224 132.824C87.821 132.589 87.3837 132.275 87.0104 131.88C86.6477 131.475 86.365 131.016 86.1624 130.504C85.9597 129.981 85.8584 129.432 85.8584 128.856C85.8584 128.259 85.9597 127.704 86.1624 127.192C86.365 126.669 86.653 126.211 87.0264 125.816C87.3997 125.411 87.837 125.096 88.3384 124.872C88.8504 124.637 89.405 124.52 90.0024 124.52C90.5997 124.52 91.149 124.637 91.6504 124.872C92.1517 125.096 92.589 125.411 92.9624 125.816C93.3357 126.211 93.6237 126.669 93.8264 127.192C94.029 127.704 94.1304 128.259 94.1304 128.856C94.1304 129.432 94.029 129.981 93.8264 130.504C93.6237 131.016 93.3357 131.475 92.9624 131.88C92.5997 132.275 92.1624 132.589 91.6504 132.824C91.149 133.048 90.5944 133.16 89.9864 133.16ZM86.9624 128.872C86.9624 129.491 87.0957 130.056 87.3624 130.568C87.6397 131.069 88.0077 131.469 88.4664 131.768C88.925 132.056 89.4317 132.2 89.9864 132.2C90.541 132.2 91.0477 132.051 91.5064 131.752C91.965 131.453 92.333 131.048 92.6104 130.536C92.8877 130.013 93.0264 129.448 93.0264 128.84C93.0264 128.221 92.8877 127.656 92.6104 127.144C92.333 126.632 91.965 126.227 91.5064 125.928C91.0477 125.629 90.541 125.48 89.9864 125.48C89.4317 125.48 88.925 125.635 88.4664 125.944C88.0184 126.253 87.6557 126.664 87.3784 127.176C87.101 127.677 86.9624 128.243 86.9624 128.872ZM98.03 133V125.64H95.054V124.664H102.094V125.64H99.118V133H98.03ZM107.127 133.16C106.53 133.16 105.975 133.048 105.463 132.824C104.962 132.589 104.524 132.275 104.151 131.88C103.788 131.475 103.506 131.016 103.303 130.504C103.1 129.981 102.999 129.432 102.999 128.856C102.999 128.259 103.1 127.704 103.303 127.192C103.506 126.669 103.794 126.211 104.167 125.816C104.54 125.411 104.978 125.096 105.479 124.872C105.991 124.637 106.546 124.52 107.143 124.52C107.74 124.52 108.29 124.637 108.791 124.872C109.292 125.096 109.73 125.411 110.103 125.816C110.476 126.211 110.764 126.669 110.967 127.192C111.17 127.704 111.271 128.259 111.271 128.856C111.271 129.432 111.17 129.981 110.967 130.504C110.764 131.016 110.476 131.475 110.103 131.88C109.74 132.275 109.303 132.589 108.791 132.824C108.29 133.048 107.735 133.16 107.127 133.16ZM104.103 128.872C104.103 129.491 104.236 130.056 104.503 130.568C104.78 131.069 105.148 131.469 105.607 131.768C106.066 132.056 106.572 132.2 107.127 132.2C107.682 132.2 108.188 132.051 108.647 131.752C109.106 131.453 109.474 131.048 109.751 130.536C110.028 130.013 110.167 129.448 110.167 128.84C110.167 128.221 110.028 127.656 109.751 127.144C109.474 126.632 109.106 126.227 108.647 125.928C108.188 125.629 107.682 125.48 107.127 125.48C106.572 125.48 106.066 125.635 105.607 125.944C105.159 126.253 104.796 126.664 104.519 127.176C104.242 127.677 104.103 128.243 104.103 128.872ZM112.163 134.936V132.024H112.307C112.552 132.024 112.776 131.949 112.979 131.8C113.181 131.651 113.363 131.389 113.523 131.016C113.683 130.643 113.811 130.131 113.907 129.48C114.003 128.819 114.067 127.987 114.099 126.984L114.179 124.664H119.603V132.024H120.723V134.936H119.747V133H113.123V134.936H112.163ZM113.955 132.024H118.515V125.64H115.155L115.107 127.08C115.075 128.072 115.005 128.904 114.899 129.576C114.803 130.237 114.675 130.765 114.515 131.16C114.365 131.544 114.179 131.832 113.955 132.024ZM121.7 130.6C121.7 130.077 121.849 129.629 122.148 129.256C122.447 128.872 122.857 128.579 123.38 128.376C123.913 128.163 124.527 128.056 125.22 128.056C125.625 128.056 126.047 128.088 126.484 128.152C126.921 128.216 127.311 128.312 127.652 128.44V127.736C127.652 127.032 127.444 126.472 127.028 126.056C126.612 125.64 126.036 125.432 125.3 125.432C124.852 125.432 124.409 125.517 123.972 125.688C123.545 125.848 123.097 126.088 122.628 126.408L122.212 125.64C122.756 125.267 123.289 124.989 123.812 124.808C124.335 124.616 124.868 124.52 125.412 124.52C126.436 124.52 127.247 124.813 127.844 125.4C128.441 125.987 128.74 126.797 128.74 127.832V131.688C128.74 131.837 128.772 131.949 128.836 132.024C128.9 132.088 129.001 132.125 129.14 132.136V133C129.023 133.011 128.921 133.021 128.836 133.032C128.751 133.043 128.687 133.043 128.644 133.032C128.377 133.021 128.175 132.936 128.036 132.776C127.897 132.616 127.823 132.445 127.812 132.264L127.796 131.656C127.423 132.136 126.937 132.509 126.34 132.776C125.743 133.032 125.135 133.16 124.516 133.16C123.983 133.16 123.497 133.048 123.06 132.824C122.633 132.589 122.297 132.28 122.052 131.896C121.817 131.501 121.7 131.069 121.7 130.6ZM127.284 131.24C127.401 131.091 127.492 130.947 127.556 130.808C127.62 130.669 127.652 130.547 127.652 130.44V129.224C127.289 129.085 126.911 128.979 126.516 128.904C126.132 128.829 125.743 128.792 125.348 128.792C124.569 128.792 123.94 128.947 123.46 129.256C122.98 129.565 122.74 129.987 122.74 130.52C122.74 130.829 122.82 131.123 122.98 131.4C123.14 131.667 123.375 131.891 123.684 132.072C123.993 132.243 124.356 132.328 124.772 132.328C125.295 132.328 125.78 132.227 126.228 132.024C126.687 131.821 127.039 131.56 127.284 131.24ZM133.046 133V125.64H130.07V124.664H137.11V125.64H134.134V133H133.046ZM142.191 133.16C141.593 133.16 141.039 133.048 140.527 132.824C140.015 132.589 139.572 132.275 139.199 131.88C138.825 131.475 138.532 131.011 138.319 130.488C138.116 129.965 138.015 129.405 138.015 128.808C138.015 128.029 138.191 127.315 138.543 126.664C138.905 126.013 139.401 125.496 140.031 125.112C140.66 124.717 141.375 124.52 142.175 124.52C142.996 124.52 143.711 124.717 144.319 125.112C144.937 125.507 145.423 126.029 145.775 126.68C146.127 127.32 146.303 128.024 146.303 128.792C146.303 128.877 146.303 128.963 146.303 129.048C146.303 129.123 146.297 129.181 146.287 129.224H139.151C139.204 129.821 139.369 130.355 139.647 130.824C139.935 131.283 140.303 131.651 140.751 131.928C141.209 132.195 141.705 132.328 142.239 132.328C142.783 132.328 143.295 132.189 143.775 131.912C144.265 131.635 144.607 131.272 144.799 130.824L145.743 131.08C145.572 131.475 145.311 131.832 144.959 132.152C144.607 132.472 144.191 132.723 143.711 132.904C143.241 133.075 142.735 133.16 142.191 133.16ZM139.119 128.44H145.279C145.236 127.832 145.071 127.299 144.783 126.84C144.505 126.381 144.137 126.024 143.679 125.768C143.231 125.501 142.735 125.368 142.191 125.368C141.647 125.368 141.151 125.501 140.703 125.768C140.255 126.024 139.887 126.387 139.599 126.856C139.321 127.315 139.161 127.843 139.119 128.44ZM147.181 133.048V132.056C147.469 132.056 147.725 131.981 147.949 131.832C148.173 131.672 148.371 131.405 148.541 131.032C148.723 130.659 148.867 130.147 148.973 129.496C149.08 128.835 149.149 127.997 149.181 126.984L149.277 124.664H154.685V133H153.597V125.64H150.237L150.205 127.08C150.163 128.232 150.072 129.197 149.933 129.976C149.795 130.744 149.597 131.352 149.341 131.8C149.096 132.248 148.792 132.568 148.429 132.76C148.067 132.952 147.651 133.048 147.181 133.048ZM157.075 133V124.664H158.163V127.608H160.323C161.272 127.608 161.987 127.853 162.467 128.344C162.957 128.824 163.203 129.459 163.203 130.248C163.203 130.76 163.096 131.224 162.883 131.64C162.669 132.056 162.355 132.387 161.939 132.632C161.533 132.877 161.021 133 160.403 133H157.075ZM158.163 132.136H160.259C160.696 132.136 161.048 132.051 161.315 131.88C161.581 131.699 161.779 131.469 161.907 131.192C162.035 130.904 162.099 130.595 162.099 130.264C162.099 129.944 162.04 129.651 161.923 129.384C161.816 129.107 161.624 128.888 161.347 128.728C161.08 128.557 160.707 128.472 160.227 128.472H158.163V132.136ZM168.965 133V124.664H170.085L173.397 130.408L176.725 124.664H177.797V133H176.757V126.296L173.749 131.512H173.045L170.005 126.296V133H168.965ZM183.752 133.16C183.155 133.16 182.6 133.048 182.088 132.824C181.587 132.589 181.149 132.275 180.776 131.88C180.413 131.475 180.131 131.016 179.928 130.504C179.725 129.981 179.624 129.432 179.624 128.856C179.624 128.259 179.725 127.704 179.928 127.192C180.131 126.669 180.419 126.211 180.792 125.816C181.165 125.411 181.603 125.096 182.104 124.872C182.616 124.637 183.171 124.52 183.768 124.52C184.365 124.52 184.915 124.637 185.416 124.872C185.917 125.096 186.355 125.411 186.728 125.816C187.101 126.211 187.389 126.669 187.592 127.192C187.795 127.704 187.896 128.259 187.896 128.856C187.896 129.432 187.795 129.981 187.592 130.504C187.389 131.016 187.101 131.475 186.728 131.88C186.365 132.275 185.928 132.589 185.416 132.824C184.915 133.048 184.36 133.16 183.752 133.16ZM180.728 128.872C180.728 129.491 180.861 130.056 181.128 130.568C181.405 131.069 181.773 131.469 182.232 131.768C182.691 132.056 183.197 132.2 183.752 132.2C184.307 132.2 184.813 132.051 185.272 131.752C185.731 131.453 186.099 131.048 186.376 130.536C186.653 130.013 186.792 129.448 186.792 128.84C186.792 128.221 186.653 127.656 186.376 127.144C186.099 126.632 185.731 126.227 185.272 125.928C184.813 125.629 184.307 125.48 183.752 125.48C183.197 125.48 182.691 125.635 182.232 125.944C181.784 126.253 181.421 126.664 181.144 127.176C180.867 127.677 180.728 128.243 180.728 128.872ZM189.124 133L192.244 128.712L189.428 124.664H190.66L193.172 128.264H194.26V124.664H195.38V128.264H196.5L198.964 124.664H200.212L197.38 128.712L200.532 133H199.268L196.5 129.224H195.38V133H194.26V129.224H193.172L190.388 133H189.124ZM205.941 133.16C205.343 133.16 204.789 133.048 204.277 132.824C203.765 132.589 203.322 132.275 202.949 131.88C202.575 131.475 202.282 131.011 202.069 130.488C201.866 129.965 201.765 129.405 201.765 128.808C201.765 128.029 201.941 127.315 202.293 126.664C202.655 126.013 203.151 125.496 203.781 125.112C204.41 124.717 205.125 124.52 205.925 124.52C206.746 124.52 207.461 124.717 208.069 125.112C208.687 125.507 209.173 126.029 209.525 126.68C209.877 127.32 210.053 128.024 210.053 128.792C210.053 128.877 210.053 128.963 210.053 129.048C210.053 129.123 210.047 129.181 210.037 129.224H202.901C202.954 129.821 203.119 130.355 203.397 130.824C203.685 131.283 204.053 131.651 204.501 131.928C204.959 132.195 205.455 132.328 205.989 132.328C206.533 132.328 207.045 132.189 207.525 131.912C208.015 131.635 208.357 131.272 208.549 130.824L209.493 131.08C209.322 131.475 209.061 131.832 208.709 132.152C208.357 132.472 207.941 132.723 207.461 132.904C206.991 133.075 206.485 133.16 205.941 133.16ZM202.869 128.44H209.029C208.986 127.832 208.821 127.299 208.533 126.84C208.255 126.381 207.887 126.024 207.429 125.768C206.981 125.501 206.485 125.368 205.941 125.368C205.397 125.368 204.901 125.501 204.453 125.768C204.005 126.024 203.637 126.387 203.349 126.856C203.071 127.315 202.911 127.843 202.869 128.44ZM213.811 133V125.64H210.835V124.664H217.875V125.64H214.899V133H213.811ZM2.112 155.488C1.93067 155.488 1.744 155.456 1.552 155.392C1.37067 155.339 1.184 155.259 0.992 155.152L1.392 154.384C1.50933 154.448 1.616 154.501 1.712 154.544C1.81867 154.587 1.93067 154.608 2.048 154.608C2.32533 154.608 2.58667 154.469 2.832 154.192C3.07733 153.915 3.312 153.509 3.536 152.976L3.952 151.936L0.24 143.664H1.392L4.448 150.88L7.264 143.664H8.352L4.384 153.312C4.17067 153.813 3.94667 154.224 3.712 154.544C3.47733 154.864 3.22667 155.099 2.96 155.248C2.69333 155.408 2.41067 155.488 2.112 155.488ZM13.6959 152.16C12.3519 152.16 11.3332 151.749 10.6399 150.928C9.95721 150.096 9.61588 148.949 9.61588 147.488C9.61588 146.453 9.70121 145.579 9.87188 144.864C10.0425 144.149 10.2932 143.563 10.6239 143.104C10.9545 142.635 11.3599 142.251 11.8399 141.952C12.3305 141.653 12.8905 141.408 13.5199 141.216L17.0239 140.064L17.1199 141.008L13.7439 142.112C13.1039 142.325 12.5705 142.597 12.1439 142.928C11.7172 143.259 11.3812 143.68 11.1359 144.192C10.9012 144.693 10.7465 145.349 10.6719 146.16C10.9492 145.541 11.3759 145.067 11.9519 144.736C12.5279 144.395 13.1945 144.224 13.9519 144.224C14.7625 144.224 15.4505 144.389 16.0159 144.72C16.5919 145.051 17.0292 145.509 17.3279 146.096C17.6265 146.683 17.7759 147.36 17.7759 148.128C17.7759 148.939 17.6159 149.648 17.2959 150.256C16.9865 150.853 16.5279 151.323 15.9199 151.664C15.3225 151.995 14.5812 152.16 13.6959 152.16ZM13.6959 151.2C14.6452 151.2 15.3759 150.928 15.8879 150.384C16.4105 149.829 16.6719 149.093 16.6719 148.176C16.6719 147.28 16.4159 146.549 15.9039 145.984C15.4025 145.419 14.6665 145.136 13.6959 145.136C13.1412 145.136 12.6399 145.253 12.1919 145.488C11.7439 145.723 11.3865 146.064 11.1199 146.512C10.8639 146.96 10.7359 147.515 10.7359 148.176C10.7359 148.752 10.8479 149.269 11.0719 149.728C11.3065 150.187 11.6425 150.549 12.0799 150.816C12.5172 151.072 13.0559 151.2 13.6959 151.2ZM23.2063 152.16C22.6089 152.16 22.0543 152.048 21.5423 151.824C21.0303 151.589 20.5876 151.275 20.2143 150.88C19.8409 150.475 19.5476 150.011 19.3343 149.488C19.1316 148.965 19.0303 148.405 19.0303 147.808C19.0303 147.029 19.2063 146.315 19.5583 145.664C19.9209 145.013 20.4169 144.496 21.0463 144.112C21.6756 143.717 22.3903 143.52 23.1903 143.52C24.0116 143.52 24.7263 143.717 25.3343 144.112C25.9529 144.507 26.4383 145.029 26.7903 145.68C27.1423 146.32 27.3183 147.024 27.3183 147.792C27.3183 147.877 27.3183 147.963 27.3183 148.048C27.3183 148.123 27.3129 148.181 27.3023 148.224H20.1663C20.2196 148.821 20.3849 149.355 20.6623 149.824C20.9503 150.283 21.3183 150.651 21.7663 150.928C22.2249 151.195 22.7209 151.328 23.2543 151.328C23.7983 151.328 24.3103 151.189 24.7903 150.912C25.2809 150.635 25.6223 150.272 25.8143 149.824L26.7583 150.08C26.5876 150.475 26.3263 150.832 25.9743 151.152C25.6223 151.472 25.2063 151.723 24.7263 151.904C24.2569 152.075 23.7503 152.16 23.2063 152.16ZM20.1343 147.44H26.2943C26.2516 146.832 26.0863 146.299 25.7983 145.84C25.5209 145.381 25.1529 145.024 24.6943 144.768C24.2463 144.501 23.7503 144.368 23.2063 144.368C22.6623 144.368 22.1663 144.501 21.7183 144.768C21.2703 145.024 20.9023 145.387 20.6143 145.856C20.3369 146.315 20.1769 146.843 20.1343 147.44ZM28.0689 153.936V151.024H28.2129C28.4582 151.024 28.6822 150.949 28.8849 150.8C29.0875 150.651 29.2689 150.389 29.4289 150.016C29.5889 149.643 29.7169 149.131 29.8129 148.48C29.9089 147.819 29.9729 146.987 30.0049 145.984L30.0849 143.664H35.5089V151.024H36.6289V153.936H35.6529V152H29.0289V153.936H28.0689ZM29.8609 151.024H34.4209V144.64H31.0609L31.0129 146.08C30.9809 147.072 30.9115 147.904 30.8049 148.576C30.7089 149.237 30.5809 149.765 30.4209 150.16C30.2715 150.544 30.0849 150.832 29.8609 151.024ZM38.2621 152V143.68H39.3501V150.528L44.4221 143.664H45.3981V152H44.3101V145.264L39.3181 152H38.2621ZM49.8581 152V144.64H46.8821V143.664H53.9221V144.64H50.9461V152H49.8581ZM55.3871 152V143.664H56.4751V146.608H58.6351C59.5845 146.608 60.2991 146.853 60.7791 147.344C61.2698 147.824 61.5151 148.459 61.5151 149.248C61.5151 149.76 61.4085 150.224 61.1951 150.64C60.9818 151.056 60.6671 151.387 60.2511 151.632C59.8458 151.877 59.3338 152 58.7151 152H55.3871ZM56.4751 151.136H58.5711C59.0085 151.136 59.3605 151.051 59.6271 150.88C59.8938 150.699 60.0911 150.469 60.2191 150.192C60.3471 149.904 60.4111 149.595 60.4111 149.264C60.4111 148.944 60.3525 148.651 60.2351 148.384C60.1285 148.107 59.9365 147.888 59.6591 147.728C59.3925 147.557 59.0191 147.472 58.5391 147.472H56.4751V151.136ZM66.8316 152.16C66.2236 152.16 65.6636 152.048 65.1516 151.824C64.6503 151.589 64.2076 151.269 63.8236 150.864C63.4503 150.459 63.157 149.995 62.9436 149.472C62.741 148.949 62.6396 148.395 62.6396 147.808C62.6396 147.019 62.8156 146.299 63.1676 145.648C63.5196 144.997 64.0103 144.48 64.6396 144.096C65.269 143.712 65.9943 143.52 66.8156 143.52C67.5943 143.52 68.2823 143.701 68.8796 144.064C69.477 144.416 69.9196 144.896 70.2076 145.504L69.1516 145.84C68.917 145.413 68.5863 145.083 68.1596 144.848C67.7436 144.603 67.2796 144.48 66.7676 144.48C66.213 144.48 65.7063 144.624 65.2476 144.912C64.789 145.2 64.421 145.595 64.1436 146.096C63.877 146.597 63.7436 147.168 63.7436 147.808C63.7436 148.437 63.8823 149.008 64.1596 149.52C64.437 150.032 64.805 150.443 65.2636 150.752C65.7223 151.051 66.229 151.2 66.7836 151.2C67.1463 151.2 67.493 151.136 67.8236 151.008C68.165 150.88 68.4583 150.709 68.7036 150.496C68.9596 150.272 69.1303 150.032 69.2156 149.776L70.2876 150.096C70.1383 150.491 69.8876 150.848 69.5356 151.168C69.1943 151.477 68.789 151.723 68.3196 151.904C67.861 152.075 67.365 152.16 66.8316 152.16ZM71.3104 152L73.7904 148.592C73.225 148.507 72.7664 148.261 72.4144 147.856C72.073 147.44 71.9024 146.875 71.9024 146.16C71.9024 145.68 72.0144 145.253 72.2384 144.88C72.4624 144.507 72.777 144.208 73.1824 143.984C73.5984 143.76 74.0837 143.648 74.6384 143.648H77.8224V152H76.7344V148.768H74.8784L72.5264 152H71.3104ZM74.6224 147.936H76.7344V144.512H74.8144C74.2597 144.512 73.817 144.672 73.4864 144.992C73.1557 145.301 72.9904 145.696 72.9904 146.176C72.9904 146.667 73.1237 147.083 73.3904 147.424C73.6677 147.765 74.0784 147.936 74.6224 147.936ZM84.2778 152V143.664H88.4378C88.9071 143.664 89.3018 143.765 89.6218 143.968C89.9418 144.16 90.1818 144.411 90.3418 144.72C90.5124 145.029 90.5978 145.36 90.5978 145.712C90.5978 146.16 90.4911 146.565 90.2778 146.928C90.0644 147.28 89.7551 147.547 89.3498 147.728C89.8298 147.867 90.2191 148.117 90.5178 148.48C90.8164 148.843 90.9658 149.28 90.9658 149.792C90.9658 150.24 90.8538 150.629 90.6298 150.96C90.4164 151.291 90.1178 151.547 89.7338 151.728C89.3604 151.909 88.9284 152 88.4378 152H84.2778ZM85.3178 151.216H88.4058C88.6831 151.216 88.9338 151.147 89.1578 151.008C89.3924 150.859 89.5738 150.667 89.7018 150.432C89.8404 150.197 89.9098 149.952 89.9098 149.696C89.9098 149.419 89.8458 149.168 89.7178 148.944C89.5898 148.709 89.4191 148.523 89.2058 148.384C88.9924 148.245 88.7471 148.176 88.4698 148.176H85.3178V151.216ZM85.3178 147.424H88.1498C88.4271 147.424 88.6724 147.349 88.8858 147.2C89.0991 147.051 89.2644 146.859 89.3818 146.624C89.4991 146.389 89.5578 146.144 89.5578 145.888C89.5578 145.504 89.4298 145.168 89.1738 144.88C88.9284 144.592 88.6084 144.448 88.2138 144.448H85.3178V147.424ZM96.9184 152V143.664H103.622V152H102.534V144.64H98.0064V152H96.9184ZM109.58 152.16C108.983 152.16 108.428 152.048 107.916 151.824C107.415 151.589 106.977 151.275 106.604 150.88C106.241 150.475 105.959 150.016 105.756 149.504C105.553 148.981 105.452 148.432 105.452 147.856C105.452 147.259 105.553 146.704 105.756 146.192C105.959 145.669 106.247 145.211 106.62 144.816C106.993 144.411 107.431 144.096 107.932 143.872C108.444 143.637 108.999 143.52 109.596 143.52C110.193 143.52 110.743 143.637 111.244 143.872C111.745 144.096 112.183 144.411 112.556 144.816C112.929 145.211 113.217 145.669 113.42 146.192C113.623 146.704 113.724 147.259 113.724 147.856C113.724 148.432 113.623 148.981 113.42 149.504C113.217 150.016 112.929 150.475 112.556 150.88C112.193 151.275 111.756 151.589 111.244 151.824C110.743 152.048 110.188 152.16 109.58 152.16ZM106.556 147.872C106.556 148.491 106.689 149.056 106.956 149.568C107.233 150.069 107.601 150.469 108.06 150.768C108.519 151.056 109.025 151.2 109.58 151.2C110.135 151.2 110.641 151.051 111.1 150.752C111.559 150.453 111.927 150.048 112.204 149.536C112.481 149.013 112.62 148.448 112.62 147.84C112.62 147.221 112.481 146.656 112.204 146.144C111.927 145.632 111.559 145.227 111.1 144.928C110.641 144.629 110.135 144.48 109.58 144.48C109.025 144.48 108.519 144.635 108.06 144.944C107.612 145.253 107.249 145.664 106.972 146.176C106.695 146.677 106.556 147.243 106.556 147.872ZM114.616 153.936V151.024H114.76C115.005 151.024 115.229 150.949 115.432 150.8C115.634 150.651 115.816 150.389 115.976 150.016C116.136 149.643 116.264 149.131 116.36 148.48C116.456 147.819 116.52 146.987 116.552 145.984L116.632 143.664H122.056V151.024H123.176V153.936H122.2V152H115.576V153.936H114.616ZM116.408 151.024H120.968V144.64H117.608L117.56 146.08C117.528 147.072 117.458 147.904 117.352 148.576C117.256 149.237 117.128 149.765 116.968 150.16C116.818 150.544 116.632 150.832 116.408 151.024ZM124.025 152.048V151.056C124.313 151.056 124.569 150.981 124.793 150.832C125.017 150.672 125.214 150.405 125.385 150.032C125.566 149.659 125.71 149.147 125.817 148.496C125.924 147.835 125.993 146.997 126.025 145.984L126.121 143.664H131.529V152H130.441V144.64H127.081L127.049 146.08C127.006 147.232 126.916 148.197 126.777 148.976C126.638 149.744 126.441 150.352 126.185 150.8C125.94 151.248 125.636 151.568 125.273 151.76C124.91 151.952 124.494 152.048 124.025 152.048ZM133.918 152V143.68H135.006V150.528L140.078 143.664H141.054V152H139.966V145.264L134.974 152H133.918ZM143.418 152V143.664H144.506V147.248H149.274V143.664H150.362V152H149.274V148.224H144.506V152H143.418ZM152.747 152V143.664H153.835V147.248H158.603V143.664H159.691V152H158.603V148.224H153.835V152H152.747ZM165.643 152.16C165.045 152.16 164.491 152.048 163.979 151.824C163.477 151.589 163.04 151.275 162.667 150.88C162.304 150.475 162.021 150.016 161.819 149.504C161.616 148.981 161.515 148.432 161.515 147.856C161.515 147.259 161.616 146.704 161.819 146.192C162.021 145.669 162.309 145.211 162.683 144.816C163.056 144.411 163.493 144.096 163.995 143.872C164.507 143.637 165.061 143.52 165.659 143.52C166.256 143.52 166.805 143.637 167.307 143.872C167.808 144.096 168.245 144.411 168.619 144.816C168.992 145.211 169.28 145.669 169.483 146.192C169.685 146.704 169.787 147.259 169.787 147.856C169.787 148.432 169.685 148.981 169.483 149.504C169.28 150.016 168.992 150.475 168.619 150.88C168.256 151.275 167.819 151.589 167.307 151.824C166.805 152.048 166.251 152.16 165.643 152.16ZM162.619 147.872C162.619 148.491 162.752 149.056 163.019 149.568C163.296 150.069 163.664 150.469 164.123 150.768C164.581 151.056 165.088 151.2 165.643 151.2C166.197 151.2 166.704 151.051 167.163 150.752C167.621 150.453 167.989 150.048 168.267 149.536C168.544 149.013 168.683 148.448 168.683 147.84C168.683 147.221 168.544 146.656 168.267 146.144C167.989 145.632 167.621 145.227 167.163 144.928C166.704 144.629 166.197 144.48 165.643 144.48C165.088 144.48 164.581 144.635 164.123 144.944C163.675 145.253 163.312 145.664 163.035 146.176C162.757 146.677 162.619 147.243 162.619 147.872ZM175.222 152.16C174.614 152.16 174.054 152.048 173.542 151.824C173.041 151.589 172.598 151.269 172.214 150.864C171.841 150.459 171.548 149.995 171.334 149.472C171.132 148.949 171.03 148.395 171.03 147.808C171.03 147.019 171.206 146.299 171.558 145.648C171.91 144.997 172.401 144.48 173.03 144.096C173.66 143.712 174.385 143.52 175.206 143.52C175.985 143.52 176.673 143.701 177.27 144.064C177.868 144.416 178.31 144.896 178.598 145.504L177.542 145.84C177.308 145.413 176.977 145.083 176.55 144.848C176.134 144.603 175.67 144.48 175.158 144.48C174.604 144.48 174.097 144.624 173.638 144.912C173.18 145.2 172.812 145.595 172.534 146.096C172.268 146.597 172.134 147.168 172.134 147.808C172.134 148.437 172.273 149.008 172.55 149.52C172.828 150.032 173.196 150.443 173.654 150.752C174.113 151.051 174.62 151.2 175.174 151.2C175.537 151.2 175.884 151.136 176.214 151.008C176.556 150.88 176.849 150.709 177.094 150.496C177.35 150.272 177.521 150.032 177.606 149.776L178.678 150.096C178.529 150.491 178.278 150.848 177.926 151.168C177.585 151.477 177.18 151.723 176.71 151.904C176.252 152.075 175.756 152.16 175.222 152.16ZM182.468 152V144.64H179.492V143.664H186.532V144.64H183.556V152H182.468ZM187.997 152V143.68H189.085V150.528L194.157 143.664H195.133V152H194.045V145.264L189.053 152H187.997ZM1.184 171V162.664H5.344C5.81333 162.664 6.208 162.765 6.528 162.968C6.848 163.16 7.088 163.411 7.248 163.72C7.41867 164.029 7.504 164.36 7.504 164.712C7.504 165.16 7.39733 165.565 7.184 165.928C6.97067 166.28 6.66133 166.547 6.256 166.728C6.736 166.867 7.12533 167.117 7.424 167.48C7.72267 167.843 7.872 168.28 7.872 168.792C7.872 169.24 7.76 169.629 7.536 169.96C7.32267 170.291 7.024 170.547 6.64 170.728C6.26667 170.909 5.83467 171 5.344 171H1.184ZM2.224 170.216H5.312C5.58933 170.216 5.84 170.147 6.064 170.008C6.29867 169.859 6.48 169.667 6.608 169.432C6.74667 169.197 6.816 168.952 6.816 168.696C6.816 168.419 6.752 168.168 6.624 167.944C6.496 167.709 6.32533 167.523 6.112 167.384C5.89867 167.245 5.65333 167.176 5.376 167.176H2.224V170.216ZM2.224 166.424H5.056C5.33333 166.424 5.57867 166.349 5.792 166.2C6.00533 166.051 6.17067 165.859 6.288 165.624C6.40533 165.389 6.464 165.144 6.464 164.888C6.464 164.504 6.336 164.168 6.08 163.88C5.83467 163.592 5.51467 163.448 5.12 163.448H2.224V166.424ZM9.0905 168.6C9.0905 168.077 9.23983 167.629 9.5385 167.256C9.83717 166.872 10.2478 166.579 10.7705 166.376C11.3038 166.163 11.9172 166.056 12.6105 166.056C13.0158 166.056 13.4372 166.088 13.8745 166.152C14.3118 166.216 14.7012 166.312 15.0425 166.44V165.736C15.0425 165.032 14.8345 164.472 14.4185 164.056C14.0025 163.64 13.4265 163.432 12.6905 163.432C12.2425 163.432 11.7998 163.517 11.3625 163.688C10.9358 163.848 10.4878 164.088 10.0185 164.408L9.6025 163.64C10.1465 163.267 10.6798 162.989 11.2025 162.808C11.7252 162.616 12.2585 162.52 12.8025 162.52C13.8265 162.52 14.6372 162.813 15.2345 163.4C15.8318 163.987 16.1305 164.797 16.1305 165.832V169.688C16.1305 169.837 16.1625 169.949 16.2265 170.024C16.2905 170.088 16.3918 170.125 16.5305 170.136V171C16.4132 171.011 16.3118 171.021 16.2265 171.032C16.1412 171.043 16.0772 171.043 16.0345 171.032C15.7678 171.021 15.5652 170.936 15.4265 170.776C15.2878 170.616 15.2132 170.445 15.2025 170.264L15.1865 169.656C14.8132 170.136 14.3278 170.509 13.7305 170.776C13.1332 171.032 12.5252 171.16 11.9065 171.16C11.3732 171.16 10.8878 171.048 10.4505 170.824C10.0238 170.589 9.68783 170.28 9.4425 169.896C9.20783 169.501 9.0905 169.069 9.0905 168.6ZM14.6745 169.24C14.7918 169.091 14.8825 168.947 14.9465 168.808C15.0105 168.669 15.0425 168.547 15.0425 168.44V167.224C14.6798 167.085 14.3012 166.979 13.9065 166.904C13.5225 166.829 13.1332 166.792 12.7385 166.792C11.9598 166.792 11.3305 166.947 10.8505 167.256C10.3705 167.565 10.1305 167.987 10.1305 168.52C10.1305 168.829 10.2105 169.123 10.3705 169.4C10.5305 169.667 10.7652 169.891 11.0745 170.072C11.3838 170.243 11.7465 170.328 12.1625 170.328C12.6852 170.328 13.1705 170.227 13.6185 170.024C14.0772 169.821 14.4292 169.56 14.6745 169.24ZM18.4653 171V162.664H19.5533V170.04H23.1213V162.664H24.2253V170.04H27.7773V162.664H28.8653V171H18.4653ZM34.8469 171.16C34.2495 171.16 33.6949 171.048 33.1829 170.824C32.6709 170.589 32.2282 170.275 31.8549 169.88C31.4815 169.475 31.1882 169.011 30.9749 168.488C30.7722 167.965 30.6709 167.405 30.6709 166.808C30.6709 166.029 30.8469 165.315 31.1989 164.664C31.5615 164.013 32.0575 163.496 32.6869 163.112C33.3162 162.717 34.0309 162.52 34.8309 162.52C35.6522 162.52 36.3669 162.717 36.9749 163.112C37.5935 163.507 38.0789 164.029 38.4309 164.68C38.7829 165.32 38.9589 166.024 38.9589 166.792C38.9589 166.877 38.9589 166.963 38.9589 167.048C38.9589 167.123 38.9535 167.181 38.9429 167.224H31.8069C31.8602 167.821 32.0255 168.355 32.3029 168.824C32.5909 169.283 32.9589 169.651 33.4069 169.928C33.8655 170.195 34.3615 170.328 34.8949 170.328C35.4389 170.328 35.9509 170.189 36.4309 169.912C36.9215 169.635 37.2629 169.272 37.4549 168.824L38.3989 169.08C38.2282 169.475 37.9669 169.832 37.6149 170.152C37.2629 170.472 36.8469 170.723 36.3669 170.904C35.8975 171.075 35.3909 171.16 34.8469 171.16ZM31.7749 166.44H37.9349C37.8922 165.832 37.7269 165.299 37.4389 164.84C37.1615 164.381 36.7935 164.024 36.3349 163.768C35.8869 163.501 35.3909 163.368 34.8469 163.368C34.3029 163.368 33.8069 163.501 33.3589 163.768C32.9109 164.024 32.5429 164.387 32.2549 164.856C31.9775 165.315 31.8175 165.843 31.7749 166.44ZM40.6215 171V162.664H45.5975V163.64H41.7095V171H40.6215ZM50.6739 171.16C50.0765 171.16 49.5219 171.048 49.0099 170.824C48.5085 170.589 48.0712 170.275 47.6979 169.88C47.3352 169.475 47.0525 169.016 46.8499 168.504C46.6472 167.981 46.5459 167.432 46.5459 166.856C46.5459 166.259 46.6472 165.704 46.8499 165.192C47.0525 164.669 47.3405 164.211 47.7139 163.816C48.0872 163.411 48.5245 163.096 49.0259 162.872C49.5379 162.637 50.0925 162.52 50.6899 162.52C51.2872 162.52 51.8365 162.637 52.3379 162.872C52.8392 163.096 53.2765 163.411 53.6499 163.816C54.0232 164.211 54.3112 164.669 54.5139 165.192C54.7165 165.704 54.8179 166.259 54.8179 166.856C54.8179 167.432 54.7165 167.981 54.5139 168.504C54.3112 169.016 54.0232 169.475 53.6499 169.88C53.2872 170.275 52.8499 170.589 52.3379 170.824C51.8365 171.048 51.2819 171.16 50.6739 171.16ZM47.6499 166.872C47.6499 167.491 47.7832 168.056 48.0499 168.568C48.3272 169.069 48.6952 169.469 49.1539 169.768C49.6125 170.056 50.1192 170.2 50.6739 170.2C51.2285 170.2 51.7352 170.051 52.1939 169.752C52.6525 169.453 53.0205 169.048 53.2979 168.536C53.5752 168.013 53.7139 167.448 53.7139 166.84C53.7139 166.221 53.5752 165.656 53.2979 165.144C53.0205 164.632 52.6525 164.227 52.1939 163.928C51.7352 163.629 51.2285 163.48 50.6739 163.48C50.1192 163.48 49.6125 163.635 49.1539 163.944C48.7059 164.253 48.3432 164.664 48.0659 165.176C47.7885 165.677 47.6499 166.243 47.6499 166.872ZM59.7876 172.936V170.024H59.9316C60.177 170.024 60.401 169.949 60.6036 169.8C60.8063 169.651 60.9876 169.389 61.1476 169.016C61.3076 168.643 61.4356 168.131 61.5316 167.48C61.6276 166.819 61.6916 165.987 61.7236 164.984L61.8036 162.664H67.2276V170.024H68.3476V172.936H67.3716V171H60.7476V172.936H59.7876ZM61.5796 170.024H66.1396V163.64H62.7796L62.7316 165.08C62.6996 166.072 62.6303 166.904 62.5236 167.576C62.4276 168.237 62.2996 168.765 62.1396 169.16C61.9903 169.544 61.8036 169.832 61.5796 170.024ZM73.5489 171.16C72.9515 171.16 72.3969 171.048 71.8849 170.824C71.3835 170.589 70.9462 170.275 70.5729 169.88C70.2102 169.475 69.9275 169.016 69.7249 168.504C69.5222 167.981 69.4209 167.432 69.4209 166.856C69.4209 166.259 69.5222 165.704 69.7249 165.192C69.9275 164.669 70.2155 164.211 70.5889 163.816C70.9622 163.411 71.3995 163.096 71.9009 162.872C72.4129 162.637 72.9675 162.52 73.5649 162.52C74.1622 162.52 74.7115 162.637 75.2129 162.872C75.7142 163.096 76.1515 163.411 76.5249 163.816C76.8982 164.211 77.1862 164.669 77.3889 165.192C77.5915 165.704 77.6929 166.259 77.6929 166.856C77.6929 167.432 77.5915 167.981 77.3889 168.504C77.1862 169.016 76.8982 169.475 76.5249 169.88C76.1622 170.275 75.7249 170.589 75.2129 170.824C74.7115 171.048 74.1569 171.16 73.5489 171.16ZM70.5249 166.872C70.5249 167.491 70.6582 168.056 70.9249 168.568C71.2022 169.069 71.5702 169.469 72.0289 169.768C72.4875 170.056 72.9942 170.2 73.5489 170.2C74.1035 170.2 74.6102 170.051 75.0689 169.752C75.5275 169.453 75.8955 169.048 76.1729 168.536C76.4502 168.013 76.5889 167.448 76.5889 166.84C76.5889 166.221 76.4502 165.656 76.1729 165.144C75.8955 164.632 75.5275 164.227 75.0689 163.928C74.6102 163.629 74.1035 163.48 73.5489 163.48C72.9942 163.48 72.4875 163.635 72.0289 163.944C71.5809 164.253 71.2182 164.664 70.9409 165.176C70.6635 165.677 70.5249 166.243 70.5249 166.872ZM79.4965 171V162.664H80.5845V166.232H81.8325L84.6325 162.664H85.8805L82.6965 166.712L86.2805 171H85.0005L81.8325 167.24H80.5845V171H79.4965ZM88.737 174.488C88.5557 174.488 88.369 174.456 88.177 174.392C87.9957 174.339 87.809 174.259 87.617 174.152L88.017 173.384C88.1343 173.448 88.241 173.501 88.337 173.544C88.4437 173.587 88.5557 173.608 88.673 173.608C88.9503 173.608 89.2117 173.469 89.457 173.192C89.7023 172.915 89.937 172.509 90.161 171.976L90.577 170.936L86.865 162.664H88.017L91.073 169.88L93.889 162.664H94.977L91.009 172.312C90.7957 172.813 90.5717 173.224 90.337 173.544C90.1023 173.864 89.8517 174.099 89.585 174.248C89.3183 174.408 89.0357 174.488 88.737 174.488ZM96.4809 171V162.664H97.6009L100.913 168.408L104.241 162.664H105.313V171H104.273V164.296L101.265 169.512H100.561L97.5209 164.296V171H96.4809ZM111.316 171.16C110.718 171.16 110.164 171.048 109.652 170.824C109.14 170.589 108.697 170.275 108.324 169.88C107.95 169.475 107.657 169.011 107.444 168.488C107.241 167.965 107.14 167.405 107.14 166.808C107.14 166.029 107.316 165.315 107.668 164.664C108.03 164.013 108.526 163.496 109.156 163.112C109.785 162.717 110.5 162.52 111.3 162.52C112.121 162.52 112.836 162.717 113.444 163.112C114.062 163.507 114.548 164.029 114.9 164.68C115.252 165.32 115.428 166.024 115.428 166.792C115.428 166.877 115.428 166.963 115.428 167.048C115.428 167.123 115.422 167.181 115.412 167.224H108.276C108.329 167.821 108.494 168.355 108.772 168.824C109.06 169.283 109.428 169.651 109.876 169.928C110.334 170.195 110.83 170.328 111.364 170.328C111.908 170.328 112.42 170.189 112.9 169.912C113.39 169.635 113.732 169.272 113.924 168.824L114.868 169.08C114.697 169.475 114.436 169.832 114.084 170.152C113.732 170.472 113.316 170.723 112.836 170.904C112.366 171.075 111.86 171.16 111.316 171.16ZM108.244 166.44H114.404C114.361 165.832 114.196 165.299 113.908 164.84C113.63 164.381 113.262 164.024 112.804 163.768C112.356 163.501 111.86 163.368 111.316 163.368C110.772 163.368 110.276 163.501 109.828 163.768C109.38 164.024 109.012 164.387 108.724 164.856C108.446 165.315 108.286 165.843 108.244 166.44ZM117.09 171V162.664H118.178V166.248H122.946V162.664H124.034V171H122.946V167.224H118.178V171H117.09ZM128.514 171V163.64H125.538V162.664H132.578V163.64H129.602V171H128.514ZM133.34 168.6C133.34 168.077 133.49 167.629 133.789 167.256C134.087 166.872 134.498 166.579 135.021 166.376C135.554 166.163 136.167 166.056 136.861 166.056C137.266 166.056 137.687 166.088 138.125 166.152C138.562 166.216 138.951 166.312 139.293 166.44V165.736C139.293 165.032 139.085 164.472 138.669 164.056C138.253 163.64 137.677 163.432 136.941 163.432C136.493 163.432 136.05 163.517 135.613 163.688C135.186 163.848 134.738 164.088 134.269 164.408L133.853 163.64C134.397 163.267 134.93 162.989 135.453 162.808C135.975 162.616 136.509 162.52 137.053 162.52C138.077 162.52 138.887 162.813 139.485 163.4C140.082 163.987 140.381 164.797 140.381 165.832V169.688C140.381 169.837 140.413 169.949 140.477 170.024C140.541 170.088 140.642 170.125 140.781 170.136V171C140.663 171.011 140.562 171.021 140.477 171.032C140.391 171.043 140.327 171.043 140.285 171.032C140.018 171.021 139.815 170.936 139.677 170.776C139.538 170.616 139.463 170.445 139.453 170.264L139.437 169.656C139.063 170.136 138.578 170.509 137.981 170.776C137.383 171.032 136.775 171.16 136.157 171.16C135.623 171.16 135.138 171.048 134.701 170.824C134.274 170.589 133.938 170.28 133.693 169.896C133.458 169.501 133.34 169.069 133.34 168.6ZM138.925 169.24C139.042 169.091 139.133 168.947 139.197 168.808C139.261 168.669 139.293 168.547 139.293 168.44V167.224C138.93 167.085 138.551 166.979 138.157 166.904C137.773 166.829 137.383 166.792 136.989 166.792C136.21 166.792 135.581 166.947 135.101 167.256C134.621 167.565 134.381 167.987 134.381 168.52C134.381 168.829 134.461 169.123 134.621 169.4C134.781 169.667 135.015 169.891 135.325 170.072C135.634 170.243 135.997 170.328 136.413 170.328C136.935 170.328 137.421 170.227 137.869 170.024C138.327 169.821 138.679 169.56 138.925 169.24Z" fill="#000846"/>
<path d="M9.65 20.57L11.8512 19.935L25.105 6.52249C25.2095 6.41536 25.2677 6.27141 25.267 6.12172C25.2663 5.97204 25.2068 5.82864 25.1012 5.72249L24.3075 4.91999C24.2562 4.86729 24.1949 4.82533 24.1272 4.79656C24.0596 4.7678 23.9868 4.7528 23.9133 4.75245C23.8397 4.7521 23.7669 4.76641 23.6989 4.79453C23.631 4.82265 23.5693 4.86403 23.5175 4.91624L10.2987 18.2937L9.64875 20.5687L9.65 20.57ZM25.8787 3.32999L26.6725 4.13374C27.7675 5.24249 27.7775 7.03124 26.6925 8.12874L13.035 21.9512L8.33 23.3062C8.04275 23.3866 7.73533 23.3498 7.4752 23.2038C7.21508 23.0578 7.0235 22.8146 6.9425 22.5275C6.88223 22.3211 6.88136 22.1019 6.94 21.895L8.30875 17.095L21.93 3.30874C22.189 3.04794 22.4974 2.84132 22.8371 2.70093C23.1768 2.56054 23.541 2.4892 23.9086 2.49106C24.2761 2.49293 24.6396 2.56795 24.9779 2.71177C25.3162 2.8556 25.6224 3.06658 25.8787 3.32999ZM11.48 4.77124C12.1 4.77124 12.6025 5.27999 12.6025 5.90749C12.6035 6.05583 12.5752 6.2029 12.5193 6.34031C12.4634 6.47771 12.381 6.60275 12.2768 6.70828C12.1725 6.81381 12.0485 6.89775 11.9118 6.95531C11.7751 7.01287 11.6283 7.04292 11.48 7.04374H6.99C5.75 7.04374 4.745 8.06124 4.745 9.31499V22.9475C4.745 24.2025 5.75 25.22 6.99 25.22H20.46C21.7 25.22 22.7063 24.2025 22.7063 22.9475V18.4037C22.7063 17.7762 23.2087 17.2675 23.8288 17.2675C24.4487 17.2675 24.9513 17.7762 24.9513 18.405V22.9475C24.9513 25.4575 22.94 27.4925 20.46 27.4925H6.99C4.51 27.4925 2.5 25.4575 2.5 22.9475V9.31499C2.5 6.80624 4.51 4.77124 6.99 4.77124H11.48Z" fill="#513EB4"/>
</svg>
